<svg width="184" height="30" viewBox="0 0 184 30" fill="none" xmlns="http://www.w3.org/2000/svg">
<path fill-rule="evenodd" clip-rule="evenodd" d="M149.727 4.94305V9.88257L147.915 8.9439C144.055 6.94286 139.305 8.44534 136.794 12.4616C135.087 15.1932 135.292 22.8521 137.14 25.3726C139.573 28.6896 144.337 29.848 147.915 27.9929C149.539 27.1515 149.727 27.1515 149.727 27.9929C149.727 28.6786 150.391 28.9321 152.183 28.9321H154.639V14.4675V0.00292969H152.183H149.727V4.94305ZM4.38522 8.90574C3.30937 9.37476 1.99403 10.6015 1.46224 11.6319L0.495692 13.5061L2.49695 14.0478C4.10951 14.4842 4.71252 14.3678 5.5974 13.4513C6.94099 12.0596 9.90205 11.9698 11.21 13.2802C13.0215 15.096 12.3516 15.8192 8.53758 16.1657C2.32747 16.7302 -0.71403 19.6483 0.141986 24.221C0.730267 27.365 2.50309 28.6244 6.34104 28.6244C8.57319 28.6244 9.961 28.2871 10.7771 27.5472C12.2318 26.2276 12.7888 26.1845 12.7888 27.3934C12.7888 28.0384 13.4373 28.3166 14.938 28.3166H17.0873V21.2185C17.0873 16.5831 16.7938 13.4162 16.2417 12.0916C14.7391 8.48658 8.92813 6.92501 4.38522 8.90574ZM44.8857 8.43733C43.4439 8.71678 42.6566 10.6612 41.0208 17.9895C40.5891 19.9222 40.0554 21.3915 39.8344 21.2548C39.6139 21.1182 38.7769 18.2191 37.9743 14.8128L36.5159 8.62014H33.9743H31.4326L29.9828 14.7753C29.1857 18.1606 28.3383 20.9304 28.1001 20.9304C27.8618 20.9304 27.0009 18.2302 26.1866 14.9292L24.7055 8.9279L22.1245 8.73894C20.7048 8.6343 19.5694 8.77279 19.6013 9.04669C19.6326 9.31998 21.0837 13.8366 22.8252 19.0839L25.9913 28.6244H28.1222C30.4385 28.6244 30.3592 28.7863 33.1232 18.4684L33.865 15.6986L34.7271 18.7761C35.2018 20.4688 35.994 23.3076 36.4877 25.0852C37.3664 28.2452 37.4364 28.3166 39.6772 28.3166H41.9676L44.9557 18.93C46.599 13.7677 48.0703 9.1975 48.225 8.77402C48.5075 8.00401 47.5987 7.9123 44.8857 8.43733ZM54.2006 14.9292L52.4867 21.8537L51.6049 19.6994C51.1198 18.5146 50.44 16.8527 50.0943 16.0063C49.4876 14.5223 49.4311 14.5728 48.5137 17.4122C47.6122 20.2029 47.6343 20.5796 48.9404 24.6445C50.2896 28.8441 50.3608 28.9321 52.4149 28.9321C54.6857 28.9321 54.8441 28.6108 57.0505 19.5455C57.4416 17.9372 57.9384 16.6218 58.154 16.6218C58.3695 16.6218 59.2415 19.3221 60.0908 22.6231L61.6358 28.6244L63.8925 28.8134L66.1492 29.0029L69.2515 19.3098C70.958 13.9788 72.3538 9.25474 72.3538 8.81095C72.3538 8.28838 71.5377 8.00463 70.0356 8.00463H67.7175L65.9613 14.7753C64.9953 18.4992 64.1356 21.546 64.0509 21.546C63.9668 21.546 63.1433 18.4992 62.2216 14.7753L60.5458 8.00463H58.2301H55.9144L54.2006 14.9292ZM79.8301 10.0524C79.5096 11.2176 78.7536 14.2669 78.1512 16.8293C77.5482 19.3917 76.8647 21.3699 76.6308 21.2253C76.3974 21.0806 75.8546 19.7013 75.4241 18.1606C74.9937 16.62 74.4293 15.2277 74.1696 15.0664C73.9098 14.9058 73.2749 16.0186 72.7572 17.5402C71.8693 20.1524 71.8951 20.5365 73.2135 24.4654C74.5663 28.4957 74.678 28.6305 76.8261 28.8134C78.9698 28.9962 79.065 28.9155 79.7282 26.3513C80.1058 24.8931 80.9121 21.8999 81.5206 19.6994L82.6266 15.6986L83.3684 18.4684C86.1243 28.7635 86.0562 28.6244 88.3534 28.6244H90.4689L93.6682 19.0839C95.4275 13.8366 96.878 9.1975 96.8921 8.77402C96.9074 8.28715 96.0459 8.00463 94.5433 8.00463H92.1699L90.421 14.747C89.4587 18.4548 88.5739 21.3902 88.4541 21.2702C88.3344 21.1502 87.4949 18.1859 86.5892 14.6824L84.9422 8.31239L82.6782 8.12342C80.5627 7.94738 80.3754 8.07418 79.8301 10.0524ZM102.636 9.20488C100.513 10.5024 99.0948 12.5958 99.688 13.5572C100.263 14.4897 103.431 14.2687 104.286 13.2365C105.2 12.1317 108.653 12.0135 109.689 13.0519C110.095 13.4581 110.426 14.289 110.426 14.8984C110.426 15.7675 109.93 16.0069 108.123 16.01C102.153 16.0186 98.4795 18.6333 98.4795 22.8749C98.4795 24.9061 98.8467 25.6939 100.472 27.1484C102.868 29.2947 105.457 29.467 108.747 27.6999C110.65 26.6769 111.04 26.6246 111.04 27.3921C111.04 28.0655 111.731 28.3166 113.579 28.3166H116.119L115.825 20.6609C115.599 14.8036 115.28 12.6228 114.466 11.377C112.328 8.1068 106.257 6.99211 102.636 9.20488ZM120.251 18.4684V28.9321H122.708H125.164L125.179 24.4697C125.187 22.0156 125.448 18.8992 125.761 17.5451C126.494 14.3623 129.039 12.0744 131.334 12.5348C132.812 12.8309 133.049 12.6499 133.383 10.9757C133.997 7.89568 133.937 7.8249 130.96 8.16097C129.216 8.35793 127.593 9.00976 126.661 9.88687L125.164 11.297V9.65052C125.164 8.14066 124.961 8.00463 122.708 8.00463H120.251V18.4684ZM161.961 9.80378C158.561 13.2119 159.947 17.0072 165.49 19.4643C169.208 21.112 170.167 22.5222 168.435 23.792C167.076 24.7879 165.161 24.3509 163.752 22.7234C162.565 21.3521 161.512 21.2622 160.013 22.4028C158.485 23.5655 158.66 24.2512 161.015 26.3242C165.276 30.0739 170.969 29.1833 173.297 24.4032C174.371 22.2003 174.384 21.8826 173.488 19.9992C172.727 18.3988 171.77 17.6873 168.962 16.6342C165.223 15.232 164.372 14.5008 164.894 13.1386C165.284 12.1206 168.256 12.0516 169.24 13.0371C169.793 13.5923 170.252 13.4981 171.205 12.6339C172.92 11.0779 172.761 10.0457 170.636 8.9439C167.591 7.36511 164.043 7.71718 161.961 9.80378ZM148.475 13.6606C150.457 15.7927 150.383 21.0339 148.34 23.2386C145.771 26.0109 141.407 24.0659 141.089 20.0072C140.693 14.9439 142.177 12.3132 145.428 12.3132C146.483 12.3132 147.738 12.8684 148.475 13.6606ZM12.1747 20.9581C12.1747 21.3121 11.4784 22.3 10.6279 23.1525C7.94991 25.8367 3.71773 24.0363 6.05857 21.2087C6.91213 20.1777 12.1747 19.9629 12.1747 20.9581ZM110.426 21.2142C110.426 22.6736 107.823 24.6949 106.198 24.4967C104.197 24.2524 103.176 22.5782 104.243 21.2899C105.323 19.9856 110.426 19.9228 110.426 21.2142ZM178.325 23.1285C176.838 24.6198 177.132 26.9071 178.966 28.1117C180.405 29.0571 180.74 29.0725 182.19 28.2594C184.157 27.1564 184.59 24.9381 183.148 23.342C181.857 21.9116 179.637 21.8137 178.325 23.1285Z" fill="black"/>
</svg>
