<svg width="130" height="33" viewBox="0 0 130 33" fill="none" xmlns="http://www.w3.org/2000/svg">
<path fill-rule="evenodd" clip-rule="evenodd" d="M10.8002 1.69463C10.0263 2.63836 9.17423 6.10312 8.90396 9.39409C8.55987 13.5991 7.95636 15.3766 6.87199 15.3766C4.1855 15.3766 0 20.5792 0 23.9186C0 29.9549 7.901 34.4283 11.7229 30.5555C12.7356 29.5293 13.3152 29.5293 14.328 30.5555C17.5593 33.83 21.9402 30.748 24.4118 23.4621C26.2419 18.0692 28.2174 17.396 28.238 22.1598C28.2706 29.7504 32.7861 34.0038 36.8522 30.2739C38.5965 28.6746 38.8776 28.6647 39.4507 30.1782C40.4917 32.928 45.3057 32.2362 47.3724 29.0398C49.0754 26.4055 49.2838 26.3472 50.29 28.2149C52.792 32.8598 57.5148 33.148 60.6952 28.8506C65.3311 22.5844 65.4223 22.5294 66.4589 25.3694C68.9793 32.2736 74.3393 33.8817 78.0624 28.8506C82.7939 22.4546 82.7179 22.4799 84.4155 26.7938C86.9642 33.2679 94.0837 33.6441 96.6204 27.4394C97.9609 24.1595 100.947 22.9132 100.947 25.6345C100.947 26.4363 102.143 28.2314 103.605 29.6228C105.639 31.5586 106.978 31.981 109.304 31.42C112.846 30.5665 113.236 30.5665 118.462 31.4321C122.991 32.1834 126.25 30.7546 128.719 26.9357C131.518 22.6075 129.354 21.2799 125.846 25.1725C123.905 27.325 121.73 28.5756 119.925 28.5756H117.071L119.32 25.6773C124.384 19.1548 119.88 11.5422 113.474 15.7956C110.753 17.6028 110.165 19.6168 110.622 25.5509C110.806 27.9399 110.389 28.5756 108.64 28.5756C107.422 28.5756 105.694 27.4449 104.8 26.0634C103.314 23.7668 103.406 23.0903 105.861 18.1781C110.482 8.92882 109.013 -1.36866 103.335 0.458317C100.276 1.44165 98.7761 5.82374 98.7761 13.7784C98.7761 17.682 98.5318 20.8762 98.2333 20.8762C97.9348 20.8762 96.7137 19.8863 95.5197 18.6763C94.3257 17.4664 92.8604 16.4765 92.2634 16.4765C90.5158 16.4765 91.0162 21.0709 93.0047 23.2982C94.7176 25.2165 94.7165 25.4618 92.9841 27.2161C91.5513 28.6691 90.7166 28.8165 89.2577 27.875C86.8535 26.323 87.0043 20.5297 89.6919 11.2321C91.8552 3.74709 91.1334 0.527612 87.2931 0.527612C84.3168 0.527612 82.5279 5.12969 82.5106 12.8368C82.4921 20.4307 81.5445 21.8672 78.6724 18.6499C77.6043 17.4543 76.0739 16.4765 75.2706 16.4765C73.2625 16.4765 73.4362 19.7334 75.5702 22.1235C78.7234 25.6532 74.5835 30.4081 70.9896 27.3855C69.0065 25.7169 69.3365 21.799 72.3508 11.2321C74.4869 3.74379 73.7575 0.527612 69.9259 0.527612C66.9495 0.527612 65.1607 5.12969 65.1434 12.8368C65.1249 20.3922 64.2348 21.8188 61.5321 18.6202C57.9099 14.3327 55.3244 16.9682 58.2421 21.9728C60.0689 25.1054 60.071 25.3716 58.2844 27.1809C56.8212 28.6647 55.9843 28.8187 54.5233 27.875C52.119 26.323 52.2699 20.5297 54.9575 11.2321C57.1208 3.74709 56.399 0.527612 52.5586 0.527612C49.4879 0.527612 47.7935 5.19788 47.7718 13.7267C47.7566 19.6366 47.2117 22.3215 45.4283 25.2759C43.3062 28.7934 43.0316 28.9353 42.2523 26.9258C41.7834 25.7158 41.3655 22.6218 41.3231 20.0512C41.2113 13.1514 38.5476 13.8763 37.3298 21.1391C36.6372 25.266 35.8231 27.0072 34.4631 27.27C32.8544 27.5802 32.5635 26.7762 32.5635 22.0289C32.5635 16.6701 32.4181 16.3918 29.2844 15.7571C27.4815 15.392 25.7426 14.6616 25.4213 14.1348C25.1 13.6079 24.1339 13.1767 23.2732 13.1767C22.1693 13.1767 21.709 14.4856 21.709 17.6314C21.709 20.0809 20.9156 23.6403 19.9463 25.5399C18.3789 28.6097 18.0369 28.7923 16.8712 27.1765C15.8291 25.7323 15.9681 23.7327 17.5441 17.4422C19.0844 11.2948 19.2841 8.60655 18.4364 5.41457C17.022 0.0942424 13.5117 -1.61614 10.8002 1.69463ZM105.06 9.36549C104.377 17.7095 102.032 20.049 102.032 12.387C102.032 6.13612 102.792 3.27742 104.454 3.27742C105.129 3.27742 105.364 5.64225 105.06 9.36549ZM15.1963 10.912C15.1963 17.6358 13.7744 20.5495 12.6205 16.1894C11.2518 11.011 12.1538 4.37734 14.227 4.37734C14.76 4.37734 15.1963 7.31744 15.1963 10.912ZM52.2352 10.5006L51.2344 14.8266L51.1248 10.3356C51.0651 7.8652 51.3722 5.48276 51.8075 5.0417C53.1209 3.71079 53.2935 5.92273 52.2352 10.5006ZM69.6252 11.143L68.5788 14.8266L68.4811 10.3356C68.4279 7.8652 68.7492 5.46957 69.1975 5.012C70.5131 3.66679 70.7573 7.16015 69.6252 11.143ZM86.9696 10.5006L85.9688 14.8266L85.8592 10.3356C85.7995 7.8652 86.1067 5.48276 86.5419 5.0417C87.8553 3.71079 88.0279 5.92273 86.9696 10.5006ZM37.3004 9.3193C36.9249 10.3125 37.1376 11.6522 37.7737 12.2968C39.4279 13.9731 42.5605 12.4409 42.1285 10.1684C41.6477 7.63641 38.1699 7.02486 37.3004 9.3193ZM118.314 20.2206C118.314 20.9983 117.337 22.5316 116.143 23.626C114.017 25.5762 113.972 25.5476 113.972 22.2379C113.972 20.3801 114.583 18.6378 115.329 18.3662C117.113 17.7183 118.314 18.4652 118.314 20.2206ZM10.6613 22.3215C12.4035 26.0051 10.9142 28.5756 7.03915 28.5756C3.4322 28.5756 1.78991 22.8021 4.59037 19.9643C6.59303 17.935 9.0353 18.8831 10.6613 22.3215Z" fill="black"/>
</svg>
