<svg width="130" height="43" viewBox="0 0 130 43" fill="none" xmlns="http://www.w3.org/2000/svg">
<path fill-rule="evenodd" clip-rule="evenodd" d="M10.1564 2.20642C7.3362 3.70073 3.97002 6.64368 2.67579 8.74812L0.32146 12.5729L3.68411 11.2098C5.53486 10.4603 12.3413 9.79273 18.8102 9.72715C27.8733 9.63464 31.003 9.17908 32.4467 7.7445C34.1609 6.04057 34.0009 5.66348 30.5606 3.31778C24.7483 -0.647524 16.4029 -1.10191 10.1564 2.20642ZM55.8758 20.7319C55.8758 28.5395 55.2875 33.6143 57.0524 33.6139C58.8172 33.6134 58.2289 28.5395 58.2289 20.7319C58.2289 12.9242 58.8172 7.84946 57.0524 7.8499C55.2875 7.85034 55.8758 12.9242 55.8758 20.7319ZM37.7142 13.3622C37.0765 15.031 37.2106 15.1657 38.3731 14.018C39.1778 13.2229 39.539 12.2778 39.1767 11.9183C38.8143 11.5576 38.1566 12.2075 37.7142 13.3622ZM0.189684 18.9752C1.43568 30.8899 6.15962 38.4844 13.965 41.1241C23.6412 44.3961 33.2644 38.2959 36.6364 26.7513C38.7307 19.5784 38.5495 19.2891 30.5794 17.0921C25.8661 15.7922 8.24569 16.256 3.32055 17.8088C1.41097 18.4108 0.635605 18.07 0.234393 16.4515C-0.0597503 15.2629 -0.0797521 16.3988 0.189684 18.9752ZM65.6684 17.5114C63.1035 20.3478 62.347 22.4881 63.3906 28.2081C65.6214 33.5237 70.9183 35.6656 75.8152 33.2344C77.7907 32.2542 79.4073 31.938 79.4073 32.5329C79.4073 33.6134 81.7605 33.6134 81.7605 33.6134C81.7605 33.6134 81.7604 29.7106 81.7604 24.2451C81.7604 18.7797 81.2698 14.8764 80.5839 14.8764C79.9367 14.8764 79.4073 15.4222 79.4073 16.0885C79.4073 16.9247 78.7002 16.9247 77.1318 16.0885C73.2985 14.0473 68.2334 14.675 65.6684 17.5114ZM87.6433 27.7584C87.6433 35.5661 88.1069 40.6404 88.8199 40.6404C89.467 40.6404 89.9965 38.5723 89.9965 36.0462V31.4509L93.5179 33.1993C99.8962 36.3671 106.469 31.7542 106.469 24.1093C106.469 16.9914 98.7572 12.6338 92.272 16.0885C90.7036 16.9247 89.9965 16.9247 89.9965 16.0885C89.9965 15.4222 89.467 14.8764 88.8199 14.8764C88.1069 14.8764 87.6433 19.9508 87.6433 27.7584ZM113.908 17.5114C110.378 21.4146 109.839 23.943 111.63 28.2081C113.861 33.5237 119.158 35.6656 124.055 33.2344C126.03 32.2542 127.647 31.938 127.647 32.5329C127.647 33.1267 128.176 33.6139 128.823 33.6139C129.509 33.6139 130 29.7106 130 24.2451C130 18.7797 129.509 14.8764 128.823 14.8764C128.176 14.8764 127.647 15.4222 127.647 16.0885C127.647 16.9247 126.94 16.9247 125.371 16.0885C121.538 14.0473 116.473 14.675 113.908 17.5114ZM77.2553 19.1568C81.7004 23.1607 78.2707 32.4428 72.3478 32.4428C69.0146 32.4428 65.2884 28.3194 65.2884 24.6304C65.2884 18.2 72.5208 14.8917 77.2553 19.1568ZM101.963 19.1568C106.408 23.1607 102.979 32.4428 97.0559 32.4428C93.7227 32.4428 89.9965 28.3194 89.9965 24.6304C89.9965 18.2 97.2289 14.8917 101.963 19.1568ZM125.495 19.1568C129.595 22.8504 127.652 30.4285 122.258 31.7764C117.664 32.9241 113.528 29.8031 113.528 25.189C113.528 18.2445 120.552 14.7043 125.495 19.1568ZM29.8794 19.4109C34.2656 20.6323 35.6316 23.6526 33.5044 27.4247C31.7489 30.5386 31.5372 30.5866 19.0172 30.7131C8.03744 30.8232 6.1608 30.562 5.20895 28.7913C3.18995 25.0368 3.91237 20.7342 6.75379 19.5971C9.81053 18.3745 25.6978 18.2468 29.8794 19.4109ZM8.8128 25.4162C8.8128 26.0603 9.60699 26.5873 10.5777 26.5873C11.5483 26.5873 12.3425 26.0603 12.3425 25.4162C12.3425 24.7721 11.5483 24.2451 10.5777 24.2451C9.60699 24.2451 8.8128 24.7721 8.8128 25.4162ZM25.8731 25.4162C25.4731 26.0603 25.972 26.5873 26.9803 26.5873C27.9886 26.5873 28.8146 26.0603 28.8146 25.4162C28.8146 24.7721 28.3169 24.2451 27.7074 24.2451C27.0979 24.2451 26.2732 24.7721 25.8731 25.4162Z" fill="black"/>
</svg>
