<svg width="196" height="46" viewBox="0 0 196 46" fill="none" xmlns="http://www.w3.org/2000/svg">
<path fill-rule="evenodd" clip-rule="evenodd" d="M16.8126 0.756034C11.9541 2.10827 9.75035 3.36438 6.39464 6.69495C1.86407 11.1901 0 15.8034 0 22.5197C0 27.1941 0.279479 28.6379 1.82349 31.9373C8.24693 45.6655 26.4222 49.3488 37.9935 39.2674C49.0018 29.6764 47.5324 11.4388 35.1214 3.62872C29.6758 0.202021 22.7229 -0.889118 16.8126 0.756034ZM30.9548 13.3282C34.4918 16.6068 34.5199 21.5046 31.0222 24.8306C29.2615 26.5043 28.4794 26.7472 24.1576 26.9635L19.2801 27.2084V30.3844V33.561H16.9893H14.6985V22.5197V11.4784H21.8288C28.7634 11.4784 29.0141 11.5291 30.9548 13.3282ZM61.1693 22.4775C61.1693 30.3259 61.1837 30.4019 62.642 30.1967C63.8659 30.0239 64.1487 29.5231 64.3156 27.2285L64.5171 24.4682H67.3106C72.1063 24.4682 74.5889 20.1244 71.7686 16.6685C70.8044 15.4877 69.7166 15.1584 65.8779 14.8856L61.1693 14.5512V22.4775ZM103.713 17.3238C103.713 20.1582 103.604 20.2576 101.647 19.2177C99.473 18.0636 96.6573 19.6159 95.811 22.4353C94.9333 25.3606 95.7684 27.8514 98.1469 29.3978C99.5633 30.3181 100.126 30.3681 101.595 29.7044C102.82 29.1503 103.422 29.1224 103.587 29.6121C103.716 29.9979 104.386 30.3136 105.076 30.3136C106.243 30.3136 106.331 29.7674 106.331 22.5197C106.331 15.1591 106.258 14.7259 105.022 14.7259C103.931 14.7259 103.713 15.1591 103.713 17.3238ZM147.566 22.5197C147.566 30.3246 147.581 30.4019 149.038 30.1967C150.295 30.0194 150.54 29.5361 150.711 26.9038L150.91 23.8187H154.111H157.311L157.511 26.9038C157.692 29.7089 157.859 29.9888 159.347 29.9888H160.983V22.5197V15.0506H159.347C157.89 15.0506 157.688 15.3526 157.51 17.8109L157.308 20.5713H154.111H150.914L150.712 17.8109C150.545 15.5163 150.262 15.0155 149.038 14.8428C147.581 14.6375 147.566 14.7148 147.566 22.5197ZM19.2801 18.9475V22.5197H23.1058C27.4001 22.5197 29.3695 21.1837 28.9866 18.5299C28.7039 16.5678 26.2468 15.3968 22.3891 15.3851L19.2801 15.3754V18.9475ZM134.475 17.6486C134.475 18.6592 134.104 19.2723 133.494 19.2723C132.948 19.2723 132.512 19.8497 132.512 20.5713C132.512 21.2928 132.948 21.8702 133.494 21.8702C134.246 21.8702 134.475 22.6977 134.475 25.4197C134.475 28.3261 134.717 29.0971 135.809 29.6771C137.213 30.4227 139.711 29.9856 139.711 28.9938C139.711 28.673 139.122 28.0982 138.402 27.7156C137.442 27.2051 137.093 26.3556 137.093 24.5208C137.093 22.5678 137.379 21.9475 138.402 21.6819C139.122 21.4955 139.711 20.8765 139.711 20.3076C139.711 19.7055 139.164 19.2723 138.402 19.2723C137.442 19.2723 137.093 18.8391 137.093 17.6486C137.093 16.458 136.745 16.0248 135.784 16.0248C134.824 16.0248 134.475 16.458 134.475 17.6486ZM190.764 17.6486C190.764 18.6592 190.393 19.2723 189.782 19.2723C189.237 19.2723 188.8 19.8497 188.8 20.5713C188.8 21.2928 189.237 21.8702 189.782 21.8702C190.535 21.8702 190.764 22.6977 190.764 25.4197C190.764 28.3261 191.005 29.0971 192.098 29.6771C193.502 30.4227 196 29.9856 196 28.9938C196 28.673 195.411 28.0982 194.691 27.7156C193.73 27.2051 193.382 26.3556 193.382 24.5208C193.382 22.5678 193.668 21.9475 194.691 21.6819C195.411 21.4955 196 20.8765 196 20.3076C196 19.7055 195.452 19.2723 194.691 19.2723C193.731 19.2723 193.382 18.8391 193.382 17.6486C193.382 16.458 193.033 16.0248 192.073 16.0248C191.113 16.0248 190.764 16.458 190.764 17.6486ZM69.4444 18.956C70.0112 20.4206 68.46 21.8702 66.3256 21.8702C64.669 21.8702 64.4419 21.6351 64.4419 19.9218C64.4419 18.1246 64.6212 17.9733 66.753 17.9733C68.2126 17.9733 69.2048 18.3357 69.4444 18.956ZM79.9088 19.0787C79.6561 19.3294 78.4289 19.4665 77.1821 19.3833L74.9142 19.2314V24.8176C74.9142 30.2395 74.9574 30.398 76.3868 30.1967C77.7077 30.0103 77.8798 29.5745 78.0532 25.9711C78.226 22.3937 78.4054 21.9306 79.6895 21.7494C80.6059 21.6195 81.2087 21.0129 81.3415 20.0841C81.5451 18.6605 80.8336 18.161 79.9088 19.0787ZM85.5841 19.2554C84.7935 19.5853 83.6716 20.7648 83.0924 21.8767C79.9828 27.8442 88.3907 33.1856 92.5783 27.9027C96.1638 23.379 91.0029 16.9978 85.5841 19.2554ZM124.792 19.2788C122.591 20.1913 121.227 23.8245 122.125 26.3809C123.371 29.9291 128.951 31.3813 131.165 28.734C132.164 27.5403 130.19 25.8633 129.081 26.9635C128.041 27.9955 126.906 27.9059 125.686 26.6953C123.247 24.2746 125.355 20.9259 128.901 21.5864C130.085 21.8066 131.231 21.7014 131.448 21.3526C132.452 19.7399 127.444 18.1792 124.792 19.2788ZM181.928 19.2463C181.208 19.5386 179.809 19.6275 178.819 19.4437L177.019 19.1099V24.7117C177.019 29.8804 177.12 30.3136 178.328 30.3136C179.488 30.3136 179.637 29.8804 179.637 26.4959C179.637 22.3073 180.608 20.8207 182.878 21.5357C184.048 21.904 184.219 22.495 184.219 26.1809C184.219 30.1889 184.294 30.3935 185.691 30.1967C187.072 30.0018 187.161 29.6881 187.118 25.1943C187.081 21.2935 186.844 20.2348 185.848 19.5113C184.479 18.5182 183.828 18.4741 181.928 19.2463ZM108.949 22.8022C108.949 29.0334 110.663 31.1163 114.576 29.6401C115.892 29.1438 116.518 29.1386 116.681 29.6238C116.808 30.0031 117.477 30.3136 118.167 30.3136C119.305 30.3136 119.421 29.8005 119.421 24.7929C119.421 19.7055 119.319 19.2723 118.112 19.2723C116.963 19.2723 116.803 19.7055 116.803 22.8217C116.803 25.7509 116.566 26.4972 115.443 27.0934C112.999 28.3911 112.222 27.4493 112.222 23.1893C112.222 19.4444 112.15 19.2723 110.585 19.2723C109.041 19.2723 108.949 19.4697 108.949 22.8022ZM163.929 24.1207C163.929 28.3593 164.099 29.0594 165.284 29.6888C166.265 30.2097 167.202 30.2142 168.676 29.7037C170.157 29.1919 170.837 29.1964 171.163 29.7199C171.41 30.1168 172.166 30.3363 172.843 30.2077C173.909 30.0057 174.099 29.2614 174.263 24.6234C174.453 19.3035 174.444 19.2723 172.824 19.2723C171.302 19.2723 171.181 19.5165 170.997 22.9393C170.86 25.5015 170.472 26.8115 169.711 27.2863C167.789 28.4827 166.547 26.7076 166.547 22.7652C166.547 19.7055 166.384 19.2723 165.238 19.2723C164.046 19.2723 163.929 19.7055 163.929 24.1207ZM89.8372 22.0001C91.5121 23.6622 90.3844 27.7156 88.2474 27.7156C87.0417 27.7156 85.3865 25.8373 85.3865 24.4682C85.3865 23.0991 87.0417 21.2207 88.2474 21.2207C88.6898 21.2207 89.4052 21.5715 89.8372 22.0001ZM102.928 22.0001C104.602 23.6622 103.475 27.7156 101.338 27.7156C100.049 27.7156 98.4768 25.7983 98.4768 24.2272C98.4768 22.5295 99.6163 21.2207 101.095 21.2207C101.671 21.2207 102.496 21.5715 102.928 22.0001Z" fill="black"/>
</svg>
