<svg width="88" height="111" viewBox="0 0 88 111" fill="none" xmlns="http://www.w3.org/2000/svg">
<path fill-rule="evenodd" clip-rule="evenodd" d="M66.2373 49.2811C65.5868 46.6836 65.0853 44.1436 64.2859 41.7021C63.8237 40.291 62.699 39.4029 61.0615 40.297C59.4368 41.1843 57.8409 42.1246 56.2541 43.0777C56.1792 43.1216 56.3244 43.5107 56.3463 43.7417C56.3879 44.1762 56.5513 44.66 56.422 45.0408C55.6596 47.2968 54.4834 49.4696 54.0863 51.7809C53.1613 57.1598 54.3072 61.0215 61.2052 60.7119C61.4109 60.7028 61.6272 60.6528 61.8209 60.6983C63.0129 60.9776 63.6626 60.431 63.9205 59.3204C64.692 56.0128 65.4491 52.7014 66.2373 49.2811M53.1372 38.6916L52.6826 38.251C50.623 40.0656 48.3048 41.6608 46.5553 43.7366C41.5323 49.6977 37.1568 56.079 35.5495 63.9342C34.7228 67.9731 34.5806 72.0476 37.87 75.0266C41.0475 77.905 44.9995 77.4492 48.7881 76.194C53.5509 74.6171 56.9893 71.2959 59.8521 67.3243C61.5804 64.9252 61.529 64.8889 58.6397 64.1613C51.8741 62.4572 48.0938 58.12 48.236 51.7191C48.3184 48.0526 49.4635 44.5656 51.4399 41.4125C52.0079 40.5063 52.5714 39.5985 53.1372 38.6916M7.24754 48.1265C6.79221 50.8292 6.26275 53.5228 5.90273 56.2376C5.5185 59.1417 5.19553 62.0617 5.02762 64.9855C4.87559 67.6276 4.89299 70.2871 4.99434 72.9323C5.03443 73.9725 5.6259 74.9817 5.74616 76.0302C5.88458 77.2347 5.61455 78.4967 5.82255 79.6807C6.06156 81.0366 6.53429 82.3751 7.07433 83.6492C9.76697 90.0032 12.7992 96.1793 18.6073 100.332C26.9356 106.285 36.0921 107.359 45.601 103.917C54.9981 100.516 61.977 93.7635 68.2699 86.2664C74.134 79.2802 78.2115 71.4144 80.6235 62.5432C82.0455 57.3134 82.4985 52.0004 82.1847 46.8115C81.9139 42.338 80.1826 37.7707 76.0619 34.8908C72.3043 32.2638 68.0785 32.5182 63.8202 33.0095C63.0926 33.0936 62.3068 32.8271 61.6109 32.9914C60.8251 33.1768 59.981 33.5259 59.4046 34.0634C58.8752 34.5562 58.773 35.2921 59.9651 35.3261C64.8375 35.4685 69.9521 40.9019 70.3438 46.4186C70.5443 49.2416 71.1002 52.0125 70.098 54.8492C69.8174 55.6456 70.5246 56.8569 70.9739 57.7828C71.0548 57.9501 72.085 57.6571 72.7665 57.5632C73.1689 59.4241 72.0056 60.9269 70.7462 61.8096C67.9416 63.7757 66.7368 66.7941 65.0251 69.468C62.1003 74.0376 58.7314 78.0644 53.5179 80.1138C44.9937 83.4645 33.9296 80.3015 30.1804 71.1865C28.5746 67.2816 28.6276 63.1413 30.0972 59.2409C31.5335 55.4276 33.4509 51.7937 35.2132 48.1083C35.5513 47.4012 36.0543 46.4632 36.9974 47.6753C37.0753 47.7767 37.6131 47.7116 37.7364 47.5602C40.69 43.9294 43.6156 40.2758 46.4784 36.5019C44.1322 38.6746 41.7867 40.8481 39.4405 43.0216L39.5078 43.0989C39.7771 42.3312 39.8572 41.4091 40.3428 40.8209C45.2486 34.8734 51.0234 30.1547 58.6967 28.2385C64.7521 26.7259 70.4021 27.4308 75.919 30.6104C80.7309 33.3835 84.1512 37.131 86.002 42.2896C86.9255 44.8628 87.0942 47.5473 87.2008 50.3333C87.3113 53.2283 87.5034 56.1059 87.1222 58.9668C85.7766 69.0509 81.9963 78.1424 75.7738 86.2043C73.7785 88.7897 72.0025 91.5802 69.7675 93.9354C67.5151 96.3088 64.8474 98.2946 62.3045 100.379C60.7396 101.661 59.0892 102.842 57.4396 104.016C47.7536 110.903 37.2251 111.334 26.2783 107.908C15.1825 104.434 7.86019 96.9917 3.70021 86.1975C0.0893446 76.8289 -0.854593 67.1946 0.762505 57.3619C1.51357 52.7907 2.94007 48.3301 4.1752 43.3578C5.132 44.7091 5.68565 45.4919 6.24082 46.2687C6.57664 46.8842 6.91171 47.505 7.24754 48.1265" fill="#3373D3"/>
<path fill-rule="evenodd" clip-rule="evenodd" d="M23.1582 16.5608C23.0066 16.4035 22.855 16.2462 22.7026 16.0889C21.5259 17.4344 20.3477 18.7792 19.1702 20.1247L19.5677 20.4848C20.7648 19.177 21.9611 17.8693 23.1582 16.5608ZM9.64096 40.9353C9.17178 40.1589 8.88136 39.6777 8.59095 39.1966C8.47253 39.6862 8.41595 40.2036 8.21681 40.6554C8.06218 41.0063 7.73103 41.2746 7.51832 41.5314C5.31722 39.7301 6.57844 38.0924 7.44666 36.312C13.3695 24.1659 21.9386 14.3578 32.7411 6.59843C38.7425 2.2881 45.2198 -0.901855 52.9055 0.234715C54.347 0.448304 55.7516 0.978035 57.141 1.46073C57.4314 1.56174 57.5763 2.09996 57.7882 2.43615C57.362 2.54718 56.9268 2.77773 56.5104 2.74689C54.6948 2.61581 52.8859 2.2935 51.071 2.25032C46.392 2.13928 42.5737 4.48336 38.8888 7.03332C35.7614 9.19774 32.3112 11.1062 29.7608 13.8612C24.9551 19.0506 20.7038 24.7751 16.193 30.2513C15.8437 30.6761 15.244 30.8758 14.7937 31.2259C14.5757 31.3956 14.3592 31.6438 14.2732 31.9022C13.9624 32.8313 13.8599 33.8684 13.3997 34.7043C12.266 36.7692 10.9769 38.7463 9.64096 40.9353Z" fill="#3373D3"/>
</svg>
