<svg width="83" height="82" viewBox="0 0 83 82" fill="none" xmlns="http://www.w3.org/2000/svg">
<circle cx="43" cy="42" r="39" fill="black" stroke="black" stroke-width="2"/>
<circle cx="40" cy="40" r="39" fill="#FDD366" stroke="black" stroke-width="2"/>
<mask id="path-3-inside-1_46_10" fill="white">
<path d="M38.0869 24.6115C38.2053 23.4777 37.6862 21.8657 38.9202 21.21C39.535 20.7592 40.1998 21.1417 40.8054 21.3603C40.8054 22.4122 40.8099 23.4686 40.8008 24.5204C43.1049 25.0714 45.1722 26.3008 46.7113 28.104C47.7905 29.9892 48.601 32.0292 48.2959 34.2558C47.4626 34.4744 46.6111 34.5154 45.7687 34.3059C45.5729 32.8306 45.6822 31.1367 44.5575 29.9892C43.3326 28.3044 41.3746 27.125 39.2344 27.3436C36.8165 27.2161 34.6764 29.0102 33.8704 31.1959C33.3923 32.5209 33.8567 33.9098 34.1163 35.2303C36.8211 38.9824 41.9073 39.4924 45.3725 42.2791C47.5491 44.0686 48.7148 47.0421 48.2094 49.8334C47.5537 53.2895 44.5301 56.4724 40.8646 56.4633C40.8327 57.5925 40.8737 58.7264 40.7007 59.8511C40.309 60.443 39.3801 60.0879 38.7745 60.27C38.005 59.1498 38.0232 57.7929 38.0505 56.4952C33.67 55.8941 29.9589 51.0901 31.2658 46.7006C32.0035 46.8781 33.2648 46.3681 33.4879 47.3836C33.8112 48.3444 33.9114 49.3552 34.0571 50.357C34.9906 51.5683 35.8876 53.0208 37.454 53.4625C39.0796 53.8222 40.819 53.8723 42.4355 53.4261C43.8699 52.9889 44.5393 51.5182 45.3908 50.4162C45.8734 48.267 45.5 45.8764 43.7424 44.401C40.6232 42.2154 36.8028 41.2181 33.7748 38.8822C31.1201 36.742 30.519 32.9444 31.5299 29.8253C32.5043 26.9884 35.2228 25.1443 38.0869 24.6115Z"/>
</mask>
<path d="M38.0869 24.6115C38.2053 23.4777 37.6862 21.8657 38.9202 21.21C39.535 20.7592 40.1998 21.1417 40.8054 21.3603C40.8054 22.4122 40.8099 23.4686 40.8008 24.5204C43.1049 25.0714 45.1722 26.3008 46.7113 28.104C47.7905 29.9892 48.601 32.0292 48.2959 34.2558C47.4626 34.4744 46.6111 34.5154 45.7687 34.3059C45.5729 32.8306 45.6822 31.1367 44.5575 29.9892C43.3326 28.3044 41.3746 27.125 39.2344 27.3436C36.8165 27.2161 34.6764 29.0102 33.8704 31.1959C33.3923 32.5209 33.8567 33.9098 34.1163 35.2303C36.8211 38.9824 41.9073 39.4924 45.3725 42.2791C47.5491 44.0686 48.7148 47.0421 48.2094 49.8334C47.5537 53.2895 44.5301 56.4724 40.8646 56.4633C40.8327 57.5925 40.8737 58.7264 40.7007 59.8511C40.309 60.443 39.3801 60.0879 38.7745 60.27C38.005 59.1498 38.0232 57.7929 38.0505 56.4952C33.67 55.8941 29.9589 51.0901 31.2658 46.7006C32.0035 46.8781 33.2648 46.3681 33.4879 47.3836C33.8112 48.3444 33.9114 49.3552 34.0571 50.357C34.9906 51.5683 35.8876 53.0208 37.454 53.4625C39.0796 53.8222 40.819 53.8723 42.4355 53.4261C43.8699 52.9889 44.5393 51.5182 45.3908 50.4162C45.8734 48.267 45.5 45.8764 43.7424 44.401C40.6232 42.2154 36.8028 41.2181 33.7748 38.8822C31.1201 36.742 30.519 32.9444 31.5299 29.8253C32.5043 26.9884 35.2228 25.1443 38.0869 24.6115Z" fill="black" fill-opacity="0.94"/>
<path d="M38.0869 24.6115L39.9157 34.4429L47.2573 33.0772L48.0329 25.65L38.0869 24.6115ZM38.9202 21.21L43.6126 30.0408L44.2509 29.7016L44.8339 29.2741L38.9202 21.21ZM40.8054 21.3603H50.8054V14.338L44.2001 11.9541L40.8054 21.3603ZM40.8008 24.5204L30.8012 24.4339L30.7323 32.3947L38.4751 34.2462L40.8008 24.5204ZM46.7113 28.104L55.3898 23.1359L54.9249 22.3237L54.3174 21.612L46.7113 28.104ZM48.2959 34.2558L50.833 43.9286L57.2963 42.2333L58.2033 35.6133L48.2959 34.2558ZM45.7687 34.3059L35.8556 35.6215L36.751 42.3682L43.3557 44.0104L45.7687 34.3059ZM44.5575 29.9892L36.4692 35.8696L36.9014 36.4641L37.4159 36.989L44.5575 29.9892ZM39.2344 27.3436L38.7078 37.3297L39.4806 37.3705L40.2504 37.2918L39.2344 27.3436ZM33.8704 31.1959L24.488 27.7361L24.4759 27.7689L24.464 27.8018L33.8704 31.1959ZM34.1163 35.2303L24.304 37.1589L24.7257 39.3043L26.0043 41.078L34.1163 35.2303ZM45.3725 42.2791L51.7234 34.5547L51.6816 34.5203L51.6395 34.4864L45.3725 42.2791ZM48.2094 49.8334L58.0341 51.6974L58.0419 51.6563L58.0494 51.6152L48.2094 49.8334ZM40.8646 56.4633L40.8894 46.4633L31.1435 46.4391L30.8686 56.1811L40.8646 56.4633ZM40.7007 59.8511L49.0408 65.3684L50.2509 63.5393L50.5844 61.3717L40.7007 59.8511ZM38.7745 60.27L30.5321 65.9324L34.6651 71.9484L41.6546 69.8463L38.7745 60.27ZM38.0505 56.4952L48.0483 56.7056L48.2358 47.799L39.4099 46.588L38.0505 56.4952ZM31.2658 46.7006L33.6063 36.9783L24.3873 34.7589L21.6815 43.8472L31.2658 46.7006ZM33.4879 47.3836L23.7209 49.5297L23.8372 50.0591L24.0101 50.5728L33.4879 47.3836ZM34.0571 50.357L24.1612 51.7964L24.5381 54.3874L26.1364 56.4613L34.0571 50.357ZM37.454 53.4625L34.7401 63.0872L35.0147 63.1647L35.2934 63.2263L37.454 53.4625ZM42.4355 53.4261L45.0966 63.0655L45.2242 63.0303L45.3508 62.9917L42.4355 53.4261ZM45.3908 50.4162L53.3036 56.5307L54.6612 54.7738L55.1477 52.6074L45.3908 50.4162ZM43.7424 44.401L50.1715 36.7416L49.8378 36.4615L49.481 36.2115L43.7424 44.401ZM33.7748 38.8822L27.4985 46.6674L27.5819 46.7346L27.6667 46.8L33.7748 38.8822ZM31.5299 29.8253L22.0723 26.5766L22.0439 26.6592L22.017 26.7423L31.5299 29.8253ZM48.0329 25.65C48.1491 24.5369 48.0943 23.5133 48.0857 23.2972C48.0662 22.806 48.0849 23.0491 48.0657 23.3569C48.0439 23.7032 47.9493 24.8512 47.2822 26.2256C46.513 27.8103 45.234 29.1792 43.6126 30.0408L34.2279 12.3793C31.9894 13.5687 30.3126 15.385 29.29 17.4918C28.3694 19.3882 28.1658 21.1331 28.1048 22.106C28.0462 23.0405 28.0955 23.9402 28.1014 24.0906C28.1183 24.5161 28.084 24.1192 28.141 23.573L48.0329 25.65ZM44.8339 29.2741C43.6788 30.1211 42.3218 30.681 40.8958 30.8984C39.5519 31.1032 38.4625 30.9568 37.821 30.8228C37.2134 30.6958 36.7984 30.5324 36.7971 30.5319C36.7951 30.5311 36.7823 30.5262 36.9074 30.5755C36.9933 30.6094 37.1868 30.6857 37.4107 30.7665L44.2001 11.9541C44.2726 11.9803 44.3128 11.9968 44.244 11.9697C44.2144 11.958 44.0456 11.8909 43.8864 11.8305C43.571 11.7109 42.8378 11.4391 41.9114 11.2455C39.7643 10.7969 36.2821 10.744 33.0066 13.146L44.8339 29.2741ZM30.8054 21.3603C30.8054 22.4699 30.8098 23.4397 30.8012 24.4339L50.8005 24.607C50.8101 23.4974 50.8054 22.3545 50.8054 21.3603H30.8054ZM38.4751 34.2462C38.8127 34.327 38.9996 34.4724 39.1052 34.5961L54.3174 21.612C51.3448 18.1293 47.3971 15.8159 43.1266 14.7946L38.4751 34.2462ZM38.0327 33.0722C38.1873 33.3422 38.2873 33.5399 38.3515 33.6814C38.4153 33.8217 38.4299 33.8766 38.4245 33.8582C38.4181 33.8363 38.3888 33.7292 38.3723 33.5519C38.3551 33.3689 38.3548 33.1444 38.3885 32.8984L58.2033 35.6133C58.9607 30.0859 56.8305 25.6525 55.3898 23.1359L38.0327 33.0722ZM45.7588 24.583C46.2624 24.4509 47.1342 24.341 48.1817 24.6014L43.3557 44.0104C46.088 44.6898 48.6628 44.4979 50.833 43.9286L45.7588 24.583ZM55.6818 32.9903C55.6686 32.8908 55.6652 32.8296 55.6141 32.2667C55.5757 31.8441 55.5038 31.074 55.3475 30.2213C55.0275 28.4757 54.2163 25.5575 51.699 22.9893L37.4159 36.989C36.0234 35.5683 35.7199 34.0708 35.6754 33.8279C35.6568 33.7265 35.6645 33.7283 35.6959 34.0741C35.7043 34.1663 35.7322 34.4871 35.751 34.6855C35.7746 34.9348 35.8078 35.2612 35.8556 35.6215L55.6818 32.9903ZM52.6458 24.1088C49.9326 20.3769 44.8187 16.7213 38.2184 17.3953L40.2504 37.2918C39.1393 37.4053 38.2062 37.1299 37.5886 36.8054C37.0104 36.5017 36.6692 36.1448 36.4692 35.8696L52.6458 24.1088ZM39.761 17.3575C31.9755 16.9469 26.4362 22.4529 24.488 27.7361L43.2528 34.6556C42.9942 35.3571 42.5647 35.9382 41.9603 36.393C41.3208 36.8742 40.1948 37.4081 38.7078 37.3297L39.761 17.3575ZM24.464 27.8018C23.475 30.5427 23.6032 33.0006 23.8014 34.5135C23.9 35.2662 24.0368 35.9243 24.1257 36.3367C24.2456 36.8926 24.2609 36.9395 24.304 37.1589L43.9285 33.3017C43.875 33.0293 43.821 32.7796 43.7795 32.5903C43.7287 32.3586 43.7093 32.2737 43.6765 32.1216C43.6203 31.8608 43.6222 31.8413 43.632 31.916C43.6526 32.0731 43.7876 33.1741 43.2768 34.5899L24.464 27.8018ZM26.0043 41.078C28.9782 45.2035 33.0272 47.1595 35.2613 48.1929C38.1802 49.5429 38.6171 49.6789 39.1056 50.0718L51.6395 34.4864C49.9806 33.1524 48.2997 32.2268 46.9696 31.5681C45.8491 31.0133 44.2323 30.3065 43.6572 30.0405C41.8057 29.1841 41.9591 29.0092 42.2283 29.3826L26.0043 41.078ZM39.0217 50.0035C38.7051 49.7432 38.5396 49.4715 38.4495 49.2343C38.3575 48.9924 38.2718 48.5907 38.3694 48.0516L58.0494 51.6152C59.2322 45.0831 56.5608 38.5319 51.7234 34.5547L39.0217 50.0035ZM38.3846 47.9694C38.4595 47.575 38.6042 47.3624 38.7919 47.1848C39.0154 46.9732 39.7196 46.4604 40.8894 46.4633L40.8397 66.4632C50.4395 66.4871 56.7078 58.688 58.0341 51.6974L38.3846 47.9694ZM30.8686 56.1811C30.8579 56.5582 30.8538 56.9211 30.8505 57.1926C30.847 57.4906 30.8445 57.6949 30.8392 57.8871C30.8289 58.2692 30.812 58.3626 30.8169 58.3305L50.5844 61.3717C50.8837 59.4261 50.8529 57.0167 50.8606 56.7454L30.8686 56.1811ZM32.3605 54.3337C32.9586 53.4296 33.7143 52.6337 34.5907 51.9866C35.4521 51.3507 36.306 50.9493 37.0314 50.6968C38.361 50.2338 39.4284 50.2204 39.5947 50.2167C39.7216 50.2139 39.8067 50.2164 39.7132 50.2149C39.6804 50.2143 39.4357 50.2092 39.1882 50.2113C38.7712 50.215 37.4436 50.2278 35.8944 50.6937L41.6546 69.8463C40.4083 70.2211 39.4239 70.21 39.3636 70.2106C39.2944 70.2112 39.2315 70.2096 39.3805 70.2121C39.4688 70.2136 39.7356 70.2186 40.041 70.2117C40.5642 70.2001 41.9751 70.1531 43.6079 69.5846C45.4873 68.9302 47.5494 67.6229 49.0408 65.3684L32.3605 54.3337ZM47.0169 54.6076C47.7631 55.6937 47.9657 56.6886 48.0204 57.0867C48.0459 57.2719 48.0435 57.358 48.0419 57.2771C48.04 57.1811 48.0412 57.0445 48.0483 56.7056L28.0527 56.2847C28.0373 57.0174 27.6529 61.7414 30.5321 65.9324L47.0169 54.6076ZM39.4099 46.588C39.8993 46.6551 40.205 46.8135 40.3469 46.9043C40.487 46.9939 40.5747 47.0836 40.6447 47.181C40.7257 47.2937 41.2647 48.1612 40.85 49.554L21.6815 43.8472C19.96 49.6294 21.7011 55.0938 24.4061 58.8561C27.0812 62.5769 31.4073 65.6773 36.6911 66.4023L39.4099 46.588ZM28.9252 56.4228C30.5486 56.8136 31.9755 56.7416 32.2019 56.7346C32.9276 56.7122 32.3923 56.7314 32.0737 56.7156C31.694 56.6967 29.9152 56.6071 27.9638 55.4233C26.8991 54.7775 25.9008 53.8772 25.11 52.7233C24.335 51.5926 23.9259 50.4628 23.7209 49.5297L43.2549 45.2375C42.6761 42.6036 41.0793 39.9873 38.3368 38.3236C36.0631 36.9443 33.881 36.7807 33.0659 36.7402C32.3119 36.7027 31.309 36.7527 31.5837 36.7442C31.585 36.7441 31.5962 36.7438 31.6144 36.7434C31.6328 36.7431 31.6612 36.7427 31.6977 36.7426C31.768 36.7424 31.8871 36.7433 32.0404 36.7506C32.3187 36.7639 32.8877 36.8053 33.6063 36.9783L28.9252 56.4228ZM24.0101 50.5728C23.9391 50.3619 23.9396 50.2871 23.9773 50.5117C23.9957 50.6213 24.0168 50.7622 24.0479 50.9853C24.0722 51.16 24.1196 51.5101 24.1612 51.7964L43.9529 48.9176C43.9012 48.562 43.6616 46.2624 42.9657 44.1944L24.0101 50.5728ZM26.1364 56.4613C26.1437 56.4708 27.2509 58.0061 28.2394 59.0554C29.47 60.3617 31.5764 62.1951 34.7401 63.0872L40.1679 43.8378C41.7652 44.2882 42.6399 45.1745 42.797 45.3413C42.8704 45.4192 42.8599 45.4191 42.7028 45.2138C42.6252 45.1124 42.5449 45.005 42.4179 44.8349C42.3045 44.6832 42.1463 44.4714 41.9778 44.2527L26.1364 56.4613ZM35.2934 63.2263C38.1183 63.8514 41.5594 64.042 45.0966 63.0655L39.7745 43.7866C39.9428 43.7402 40.0164 43.7467 39.9685 43.7466C39.9471 43.7465 39.9047 43.7451 39.8418 43.7378C39.7791 43.7305 39.7026 43.7182 39.6146 43.6987L35.2934 63.2263ZM45.3508 62.9917C48.795 61.942 50.8701 59.7407 51.9064 58.4597C52.4156 57.8302 52.8285 57.2234 53.0263 56.9342C53.299 56.5355 53.3105 56.5217 53.3036 56.5307L37.4779 44.3017C37.0452 44.8617 36.6538 45.445 36.5167 45.6456C36.3046 45.9558 36.3009 45.9506 36.3571 45.8812C36.4872 45.7203 37.5104 44.473 39.5203 43.8604L45.3508 62.9917ZM55.1477 52.6074C56.1204 48.2765 55.785 41.4535 50.1715 36.7416L37.3133 52.0604C36.3353 51.2395 35.8607 50.2291 35.684 49.4944C35.5253 48.8348 35.5941 48.4019 35.6338 48.225L55.1477 52.6074ZM49.481 36.2115C47.0789 34.5283 44.4824 33.3587 42.9972 32.6568C41.2105 31.8124 40.4299 31.3864 39.8828 30.9644L27.6667 46.8C30.1477 48.7139 32.7913 49.9545 34.4516 50.7392C36.4134 51.6663 37.2867 52.0881 38.0038 52.5906L49.481 36.2115ZM40.051 31.097C40.7526 31.6626 40.9845 32.3027 41.0413 32.5592C41.0875 32.768 41.062 32.8491 41.0428 32.9083L22.017 26.7423C20.1035 32.6465 20.7624 41.2369 27.4985 46.6674L40.051 31.097ZM40.9875 33.0739C40.7459 33.7771 40.3468 34.1667 40.1553 34.3124C39.9903 34.438 39.916 34.4428 39.9157 34.4429L36.2582 14.7801C30.8319 15.7895 24.5094 19.4817 22.0723 26.5766L40.9875 33.0739Z" fill="black" mask="url(#path-3-inside-1_46_10)"/>
</svg>
