<svg width="211" height="211" viewBox="0 0 211 211" fill="none" xmlns="http://www.w3.org/2000/svg">
<circle cx="106.5" cy="106.5" r="103.5" fill="#161616" stroke="#161616" stroke-width="2"/>
<circle cx="104.5" cy="104.5" r="103.5" fill="#FF6712" stroke="#161616" stroke-width="2"/>
<path d="M76.9274 125.773L72.2399 143.188H69.6333L74.3208 125.773H76.9274ZM78.3851 141V130.091H81.2686V132.016H81.3965C81.6238 131.376 82.0025 130.872 82.5328 130.503C83.0632 130.134 83.6976 129.949 84.4363 129.949C85.1844 129.949 85.8212 130.136 86.3468 130.51C86.8723 130.879 87.2227 131.381 87.3979 132.016H87.5115C87.7341 131.391 88.1365 130.891 88.7189 130.517C89.306 130.138 89.9997 129.949 90.7999 129.949C91.8179 129.949 92.6441 130.273 93.2786 130.922C93.9178 131.566 94.2374 132.48 94.2374 133.663V141H91.2189V134.26C91.2189 133.654 91.0579 133.199 90.736 132.896C90.414 132.593 90.0115 132.442 89.5286 132.442C88.9793 132.442 88.5508 132.617 88.2431 132.967C87.9353 133.313 87.7814 133.77 87.7814 134.338V141H84.8482V134.196C84.8482 133.661 84.6943 133.235 84.3865 132.918C84.0835 132.6 83.6834 132.442 83.1863 132.442C82.8501 132.442 82.5471 132.527 82.2772 132.697C82.012 132.863 81.8013 133.098 81.6451 133.401C81.4888 133.699 81.4107 134.049 81.4107 134.452V141H78.3851ZM101.556 141.213C100.453 141.213 99.499 140.979 98.6941 140.51C97.8939 140.036 97.276 139.378 96.8404 138.536C96.4048 137.688 96.187 136.705 96.187 135.588C96.187 134.461 96.4048 133.476 96.8404 132.634C97.276 131.786 97.8939 131.128 98.6941 130.659C99.499 130.186 100.453 129.949 101.556 129.949C102.66 129.949 103.611 130.186 104.411 130.659C105.216 131.128 105.837 131.786 106.272 132.634C106.708 133.476 106.926 134.461 106.926 135.588C106.926 136.705 106.708 137.688 106.272 138.536C105.837 139.378 105.216 140.036 104.411 140.51C103.611 140.979 102.66 141.213 101.556 141.213ZM101.57 138.869C102.072 138.869 102.491 138.727 102.828 138.443C103.164 138.154 103.417 137.761 103.588 137.264C103.763 136.767 103.85 136.201 103.85 135.567C103.85 134.932 103.763 134.366 103.588 133.869C103.417 133.372 103.164 132.979 102.828 132.69C102.491 132.402 102.072 132.257 101.57 132.257C101.064 132.257 100.638 132.402 100.292 132.69C99.9512 132.979 99.6931 133.372 99.5179 133.869C99.3475 134.366 99.2623 134.932 99.2623 135.567C99.2623 136.201 99.3475 136.767 99.5179 137.264C99.6931 137.761 99.9512 138.154 100.292 138.443C100.638 138.727 101.064 138.869 101.57 138.869ZM111.919 134.693V141H108.893V130.091H111.776V132.016H111.904C112.146 131.381 112.551 130.879 113.119 130.51C113.687 130.136 114.376 129.949 115.186 129.949C115.943 129.949 116.604 130.115 117.167 130.446C117.731 130.777 118.169 131.251 118.481 131.866C118.794 132.477 118.95 133.206 118.95 134.054V141H115.924V134.594C115.929 133.926 115.758 133.405 115.413 133.031C115.067 132.652 114.591 132.463 113.985 132.463C113.578 132.463 113.218 132.551 112.906 132.726C112.598 132.901 112.356 133.157 112.181 133.493C112.011 133.824 111.923 134.224 111.919 134.693ZM127.137 130.091V132.364H120.567V130.091H127.137ZM122.059 127.477H125.084V137.648C125.084 137.927 125.127 138.145 125.212 138.301C125.297 138.453 125.416 138.559 125.567 138.621C125.724 138.682 125.903 138.713 126.107 138.713C126.249 138.713 126.391 138.701 126.533 138.678C126.675 138.649 126.784 138.628 126.86 138.614L127.336 140.865C127.184 140.912 126.971 140.967 126.697 141.028C126.422 141.095 126.088 141.135 125.695 141.149C124.966 141.178 124.327 141.08 123.778 140.858C123.233 140.635 122.809 140.29 122.506 139.821C122.203 139.352 122.054 138.76 122.059 138.045V127.477ZM132.368 134.693V141H129.342V126.455H132.282V132.016H132.41C132.657 131.372 133.054 130.867 133.604 130.503C134.153 130.134 134.842 129.949 135.67 129.949C136.428 129.949 137.088 130.115 137.652 130.446C138.22 130.773 138.66 131.244 138.973 131.859C139.29 132.47 139.446 133.202 139.442 134.054V141H136.416V134.594C136.421 133.921 136.25 133.398 135.905 133.024C135.564 132.65 135.086 132.463 134.47 132.463C134.058 132.463 133.693 132.551 133.376 132.726C133.064 132.901 132.818 133.157 132.638 133.493C132.462 133.824 132.372 134.224 132.368 134.693Z" fill="white"/>
<path d="M35.1463 110.636V74.2727H37.4759V110.636H35.1463ZM41.3253 86.2756C41.2116 85.1297 40.724 84.2396 39.8622 83.6051C39.0005 82.9706 37.831 82.6534 36.3537 82.6534C35.3499 82.6534 34.5024 82.7955 33.8111 83.0795C33.1198 83.3542 32.5895 83.7377 32.2202 84.2301C31.8603 84.7225 31.6804 85.2812 31.6804 85.9062C31.6615 86.4271 31.7704 86.8816 32.0071 87.2699C32.2533 87.6581 32.5895 87.9943 33.0156 88.2784C33.4418 88.553 33.9342 88.7945 34.4929 89.0028C35.0516 89.2017 35.6482 89.3722 36.2827 89.5142L38.8963 90.1392C40.1652 90.4233 41.33 90.8021 42.3906 91.2756C43.4512 91.7491 44.3698 92.3314 45.1463 93.0227C45.9228 93.714 46.5241 94.5284 46.9503 95.4659C47.3859 96.4034 47.6084 97.4782 47.6179 98.6903C47.6084 100.471 47.1539 102.014 46.2543 103.321C45.3641 104.618 44.0762 105.627 42.3906 106.347C40.7145 107.057 38.6927 107.412 36.3253 107.412C33.9768 107.412 31.9313 107.052 30.1889 106.332C28.456 105.613 27.1018 104.547 26.1264 103.136C25.1605 101.716 24.6539 99.9593 24.6065 97.8665H30.5582C30.6245 98.8419 30.9039 99.6562 31.3963 100.31C31.8982 100.954 32.5658 101.441 33.3991 101.773C34.242 102.095 35.1937 102.256 36.2543 102.256C37.2959 102.256 38.2003 102.104 38.9673 101.801C39.7438 101.498 40.3452 101.077 40.7713 100.537C41.1974 99.9972 41.4105 99.3769 41.4105 98.6761C41.4105 98.0227 41.2164 97.4735 40.8281 97.0284C40.4493 96.5833 39.8906 96.2045 39.152 95.892C38.4228 95.5795 37.5279 95.2955 36.4673 95.0398L33.2997 94.2443C30.8471 93.6477 28.9105 92.715 27.4901 91.446C26.0696 90.1771 25.3641 88.4678 25.3736 86.3182C25.3641 84.5568 25.8329 83.018 26.7798 81.7017C27.7363 80.3854 29.0478 79.358 30.7145 78.6193C32.3812 77.8807 34.2751 77.5114 36.3963 77.5114C38.5554 77.5114 40.4399 77.8807 42.0497 78.6193C43.669 79.358 44.9285 80.3854 45.8281 81.7017C46.7277 83.018 47.1918 84.5426 47.2202 86.2756H41.3253ZM51.5845 107V102.568L61.9396 92.9801C62.8203 92.1278 63.5589 91.3608 64.1555 90.679C64.7616 89.9972 65.2209 89.3295 65.5334 88.6761C65.8459 88.0133 66.0021 87.2983 66.0021 86.5312C66.0021 85.679 65.808 84.9451 65.4197 84.3295C65.0315 83.7045 64.5012 83.2263 63.8288 82.8949C63.1565 82.554 62.3942 82.3835 61.5419 82.3835C60.6518 82.3835 59.8752 82.5634 59.2124 82.9233C58.5495 83.2831 58.0381 83.7992 57.6783 84.4716C57.3184 85.1439 57.1385 85.9441 57.1385 86.8722H51.3004C51.3004 84.9687 51.7313 83.3163 52.593 81.9148C53.4548 80.5133 54.6622 79.429 56.2152 78.6619C57.7682 77.8949 59.558 77.5114 61.5845 77.5114C63.6679 77.5114 65.4813 77.8807 67.0249 78.6193C68.5779 79.3485 69.7853 80.3617 70.647 81.6591C71.5088 82.9564 71.9396 84.4432 71.9396 86.1193C71.9396 87.2178 71.7218 88.3021 71.2862 89.3722C70.8601 90.4422 70.0978 91.6307 68.9993 92.9375C67.9008 94.2348 66.3525 95.7926 64.3544 97.6108L60.1072 101.773V101.972H72.3232V107H51.5845ZM89.4361 77.9091V107H83.2855V83.7472H83.1151L76.4531 87.9233V82.4688L83.6548 77.9091H89.4361ZM101.421 103.023L101.265 104.585C101.142 105.835 100.905 107.08 100.555 108.321C100.214 109.571 99.8539 110.703 99.4751 111.716C99.1058 112.729 98.8075 113.525 98.5803 114.102H94.6598C94.8018 113.544 94.996 112.762 95.2422 111.759C95.4884 110.764 95.7204 109.647 95.9382 108.406C96.156 107.166 96.2933 105.902 96.3501 104.614L96.4212 103.023H101.421ZM117.131 107.639C114.688 107.63 112.586 107.028 110.825 105.835C109.073 104.642 107.723 102.914 106.776 100.651C105.839 98.3873 105.375 95.6648 105.384 92.483C105.384 89.3106 105.853 86.607 106.79 84.3722C107.737 82.1373 109.087 80.4375 110.839 79.2727C112.6 78.0985 114.698 77.5114 117.131 77.5114C119.565 77.5114 121.658 78.0985 123.41 79.2727C125.171 80.447 126.525 82.1515 127.472 84.3864C128.419 86.6117 128.888 89.3106 128.879 92.483C128.879 95.6742 128.405 98.4015 127.458 100.665C126.521 102.928 125.176 104.656 123.424 105.849C121.672 107.043 119.575 107.639 117.131 107.639ZM117.131 102.54C118.798 102.54 120.129 101.702 121.123 100.026C122.117 98.3494 122.61 95.8352 122.6 92.483C122.6 90.2765 122.373 88.4394 121.918 86.9716C121.473 85.5038 120.839 84.4006 120.015 83.6619C119.201 82.9233 118.239 82.554 117.131 82.554C115.474 82.554 114.148 83.3826 113.154 85.0398C112.16 86.697 111.658 89.178 111.648 92.483C111.648 94.7178 111.871 96.5833 112.316 98.0795C112.771 99.5663 113.41 100.684 114.234 101.432C115.058 102.17 116.023 102.54 117.131 102.54ZM144.67 107.639C142.227 107.63 140.125 107.028 138.364 105.835C136.612 104.642 135.262 102.914 134.315 100.651C133.378 98.3873 132.914 95.6648 132.923 92.483C132.923 89.3106 133.392 86.607 134.33 84.3722C135.277 82.1373 136.626 80.4375 138.378 79.2727C140.139 78.0985 142.237 77.5114 144.67 77.5114C147.104 77.5114 149.197 78.0985 150.949 79.2727C152.71 80.447 154.064 82.1515 155.011 84.3864C155.958 86.6117 156.427 89.3106 156.418 92.483C156.418 95.6742 155.944 98.4015 154.997 100.665C154.06 102.928 152.715 104.656 150.963 105.849C149.211 107.043 147.114 107.639 144.67 107.639ZM144.67 102.54C146.337 102.54 147.668 101.702 148.662 100.026C149.656 98.3494 150.149 95.8352 150.139 92.483C150.139 90.2765 149.912 88.4394 149.457 86.9716C149.012 85.5038 148.378 84.4006 147.554 83.6619C146.74 82.9233 145.778 82.554 144.67 82.554C143.013 82.554 141.688 83.3826 140.693 85.0398C139.699 86.697 139.197 89.178 139.188 92.483C139.188 94.7178 139.41 96.5833 139.855 98.0795C140.31 99.5663 140.949 100.684 141.773 101.432C142.597 102.17 143.562 102.54 144.67 102.54ZM172.21 107.639C169.766 107.63 167.664 107.028 165.903 105.835C164.151 104.642 162.801 102.914 161.854 100.651C160.917 98.3873 160.453 95.6648 160.462 92.483C160.462 89.3106 160.931 86.607 161.869 84.3722C162.816 82.1373 164.165 80.4375 165.917 79.2727C167.678 78.0985 169.776 77.5114 172.21 77.5114C174.643 77.5114 176.736 78.0985 178.488 79.2727C180.249 80.447 181.603 82.1515 182.55 84.3864C183.497 86.6117 183.966 89.3106 183.957 92.483C183.957 95.6742 183.483 98.4015 182.536 100.665C181.599 102.928 180.254 104.656 178.502 105.849C176.75 107.043 174.653 107.639 172.21 107.639ZM172.21 102.54C173.876 102.54 175.207 101.702 176.201 100.026C177.195 98.3494 177.688 95.8352 177.678 92.483C177.678 90.2765 177.451 88.4394 176.996 86.9716C176.551 85.5038 175.917 84.4006 175.093 83.6619C174.279 82.9233 173.317 82.554 172.21 82.554C170.552 82.554 169.227 83.3826 168.232 85.0398C167.238 86.697 166.736 89.178 166.727 92.483C166.727 94.7178 166.949 96.5833 167.394 98.0795C167.849 99.5663 168.488 100.684 169.312 101.432C170.136 102.17 171.102 102.54 172.21 102.54Z" fill="white"/>
</svg>
