<svg width="168" height="168" viewBox="0 0 168 168" fill="none" xmlns="http://www.w3.org/2000/svg">
<circle cx="85" cy="85" r="82" fill="#161616" stroke="#161616" stroke-width="2"/>
<circle cx="83" cy="83" r="82" fill="#FFC046" stroke="#161616" stroke-width="2"/>
<path d="M61.1072 96.0795C61.0125 95.7727 60.8819 95.4981 60.7152 95.2557C60.5523 95.0095 60.3554 94.7992 60.1243 94.625C59.897 94.4508 59.6357 94.3201 59.3402 94.233C59.0447 94.142 58.7228 94.0966 58.3743 94.0966C57.7493 94.0966 57.1925 94.2538 56.7038 94.5682C56.2152 94.8826 55.8307 95.3447 55.5504 95.9545C55.2739 96.5606 55.1357 97.2992 55.1357 98.1705C55.1357 99.0492 55.2739 99.7936 55.5504 100.403C55.8269 101.013 56.2114 101.477 56.7038 101.795C57.1963 102.11 57.7682 102.267 58.4197 102.267C59.0107 102.267 59.522 102.153 59.9538 101.926C60.3894 101.699 60.7247 101.377 60.9595 100.96C61.1944 100.54 61.3118 100.047 61.3118 99.483L61.7891 99.5568H58.63V97.9091H63.3516V99.3068C63.3516 100.303 63.1394 101.165 62.7152 101.892C62.291 102.619 61.7076 103.18 60.9652 103.574C60.2228 103.964 59.3705 104.159 58.4084 104.159C57.3364 104.159 56.3951 103.919 55.5845 103.438C54.7777 102.953 54.147 102.265 53.6925 101.375C53.2417 100.481 53.0163 99.4205 53.0163 98.1932C53.0163 97.2538 53.1489 96.4148 53.4141 95.6761C53.683 94.9375 54.058 94.3106 54.5391 93.7955C55.0201 93.2765 55.5845 92.8826 56.2322 92.6136C56.88 92.3409 57.5845 92.2045 58.3459 92.2045C58.9898 92.2045 59.5902 92.2992 60.147 92.4886C60.7038 92.6742 61.1982 92.9394 61.63 93.2841C62.0656 93.6288 62.4235 94.0379 62.7038 94.5114C62.9841 94.9848 63.1679 95.5076 63.255 96.0795H61.1072ZM65.299 104V95.2727H67.2933V96.7273H67.3842C67.5433 96.2235 67.8161 95.8352 68.2024 95.5625C68.5926 95.286 69.0376 95.1477 69.5376 95.1477C69.6513 95.1477 69.7782 95.1534 69.9183 95.1648C70.0623 95.1723 70.1816 95.1856 70.2763 95.2045V97.0966C70.1892 97.0663 70.0509 97.0398 69.8615 97.017C69.6759 96.9905 69.496 96.9773 69.3217 96.9773C68.9467 96.9773 68.6096 97.0587 68.3104 97.2216C68.0149 97.3807 67.782 97.6023 67.6115 97.8864C67.4411 98.1705 67.3558 98.4981 67.3558 98.8693V104H65.299ZM73.9979 104.176C73.4448 104.176 72.9467 104.078 72.5036 103.881C72.0642 103.68 71.7157 103.384 71.4581 102.994C71.2043 102.604 71.0774 102.123 71.0774 101.551C71.0774 101.059 71.1683 100.652 71.3501 100.33C71.532 100.008 71.7801 99.75 72.0945 99.5568C72.4089 99.3636 72.763 99.2178 73.157 99.1193C73.5547 99.017 73.9657 98.9432 74.3899 98.8977C74.9013 98.8447 75.3161 98.7973 75.6342 98.7557C75.9524 98.7102 76.1835 98.642 76.3274 98.5511C76.4751 98.4564 76.549 98.3106 76.549 98.1136V98.0795C76.549 97.6515 76.4221 97.3201 76.1683 97.0852C75.9145 96.8504 75.549 96.733 75.0717 96.733C74.5679 96.733 74.1683 96.8428 73.8729 97.0625C73.5812 97.2822 73.3842 97.5417 73.282 97.8409L71.3615 97.5682C71.513 97.0379 71.763 96.5947 72.1115 96.2386C72.46 95.8788 72.8861 95.6098 73.3899 95.4318C73.8937 95.25 74.4505 95.1591 75.0604 95.1591C75.4808 95.1591 75.8994 95.2083 76.3161 95.3068C76.7327 95.4053 77.1134 95.5682 77.4581 95.7955C77.8028 96.0189 78.0793 96.3239 78.2876 96.7102C78.4998 97.0966 78.6058 97.5795 78.6058 98.1591V104H76.6286V102.801H76.5604C76.4354 103.044 76.2592 103.271 76.032 103.483C75.8085 103.691 75.5263 103.86 75.1854 103.989C74.8482 104.114 74.4524 104.176 73.9979 104.176ZM74.532 102.665C74.9448 102.665 75.3028 102.583 75.6058 102.42C75.9089 102.254 76.1418 102.034 76.3047 101.761C76.4714 101.489 76.5547 101.191 76.5547 100.869V99.8409C76.4903 99.8939 76.3804 99.9432 76.2251 99.9886C76.0736 100.034 75.9032 100.074 75.7138 100.108C75.5244 100.142 75.3369 100.172 75.1513 100.199C74.9657 100.225 74.8047 100.248 74.6683 100.267C74.3615 100.309 74.0869 100.377 73.8445 100.472C73.602 100.566 73.4107 100.699 73.2706 100.869C73.1304 101.036 73.0604 101.252 73.0604 101.517C73.0604 101.896 73.1986 102.182 73.4751 102.375C73.7517 102.568 74.1039 102.665 74.532 102.665ZM80.674 107.273V95.2727H82.6967V96.7159H82.8161C82.9221 96.5038 83.0717 96.2784 83.2649 96.0398C83.4581 95.7973 83.7195 95.5909 84.049 95.4205C84.3786 95.2462 84.799 95.1591 85.3104 95.1591C85.9846 95.1591 86.5926 95.3314 87.1342 95.6761C87.6797 96.017 88.1115 96.5227 88.4297 97.1932C88.7517 97.8598 88.9126 98.678 88.9126 99.6477C88.9126 100.606 88.7554 101.42 88.4411 102.091C88.1267 102.761 87.6986 103.273 87.157 103.625C86.6153 103.977 86.0017 104.153 85.3161 104.153C84.8161 104.153 84.4013 104.07 84.0717 103.903C83.7422 103.737 83.477 103.536 83.2763 103.301C83.0793 103.062 82.9259 102.837 82.8161 102.625H82.7308V107.273H80.674ZM82.6911 99.6364C82.6911 100.201 82.7706 100.695 82.9297 101.119C83.0926 101.544 83.3255 101.875 83.6286 102.114C83.9354 102.348 84.3066 102.466 84.7422 102.466C85.1967 102.466 85.5774 102.345 85.8842 102.102C86.1911 101.856 86.4221 101.521 86.5774 101.097C86.7365 100.669 86.8161 100.182 86.8161 99.6364C86.8161 99.0947 86.7384 98.6136 86.5831 98.1932C86.4278 97.7727 86.1967 97.4432 85.8899 97.2045C85.5831 96.9659 85.2005 96.8466 84.7422 96.8466C84.3028 96.8466 83.9297 96.9621 83.6229 97.1932C83.3161 97.4242 83.0831 97.7481 82.924 98.1648C82.7687 98.5814 82.6911 99.072 82.6911 99.6364ZM92.7308 98.8864V104H90.674V92.3636H92.6854V96.7557H92.7876C92.9922 96.2633 93.3085 95.875 93.7365 95.5909C94.1683 95.303 94.7176 95.1591 95.3842 95.1591C95.9903 95.1591 96.5187 95.286 96.9695 95.5398C97.4202 95.7936 97.7687 96.1648 98.0149 96.6534C98.2649 97.142 98.3899 97.7386 98.3899 98.4432V104H96.3331V98.7614C96.3331 98.1742 96.1816 97.7178 95.8786 97.392C95.5793 97.0625 95.1589 96.8977 94.6172 96.8977C94.2536 96.8977 93.9278 96.9773 93.6399 97.1364C93.3558 97.2917 93.1323 97.517 92.9695 97.8125C92.8104 98.108 92.7308 98.4659 92.7308 98.8864ZM100.487 104V95.2727H102.543V104H100.487ZM101.521 94.0341C101.195 94.0341 100.915 93.9261 100.68 93.7102C100.445 93.4905 100.327 93.2273 100.327 92.9205C100.327 92.6098 100.445 92.3466 100.68 92.1307C100.915 91.911 101.195 91.8011 101.521 91.8011C101.85 91.8011 102.13 91.911 102.362 92.1307C102.596 92.3466 102.714 92.6098 102.714 92.9205C102.714 93.2273 102.596 93.4905 102.362 93.7102C102.13 93.9261 101.85 94.0341 101.521 94.0341ZM108.465 104.17C107.594 104.17 106.846 103.979 106.221 103.597C105.6 103.214 105.121 102.686 104.783 102.011C104.45 101.333 104.283 100.553 104.283 99.6705C104.283 98.7841 104.454 98.0019 104.795 97.3239C105.136 96.642 105.617 96.1117 106.238 95.733C106.863 95.3504 107.602 95.1591 108.454 95.1591C109.162 95.1591 109.789 95.2898 110.335 95.5511C110.884 95.8087 111.321 96.1742 111.647 96.6477C111.973 97.1174 112.158 97.6667 112.204 98.2955H110.238C110.158 97.875 109.969 97.5246 109.67 97.2443C109.374 96.9602 108.978 96.8182 108.482 96.8182C108.062 96.8182 107.692 96.9318 107.374 97.1591C107.056 97.3826 106.808 97.7045 106.63 98.125C106.456 98.5455 106.369 99.0492 106.369 99.6364C106.369 100.231 106.456 100.742 106.63 101.17C106.804 101.595 107.049 101.922 107.363 102.153C107.681 102.381 108.054 102.494 108.482 102.494C108.785 102.494 109.056 102.437 109.295 102.324C109.537 102.206 109.74 102.038 109.903 101.818C110.066 101.598 110.177 101.331 110.238 101.017H112.204C112.155 101.634 111.973 102.182 111.658 102.659C111.344 103.133 110.916 103.504 110.374 103.773C109.833 104.038 109.196 104.17 108.465 104.17ZM52.7862 123H48.843V111.364H52.8658C54.0211 111.364 55.0135 111.597 55.843 112.062C56.6764 112.525 57.3165 113.189 57.7635 114.057C58.2105 114.924 58.4339 115.962 58.4339 117.17C58.4339 118.383 58.2086 119.424 57.7578 120.295C57.3108 121.167 56.665 121.835 55.8203 122.301C54.9794 122.767 53.968 123 52.7862 123ZM50.951 121.176H52.6839C53.4946 121.176 54.1707 121.028 54.7124 120.733C55.254 120.434 55.6612 119.989 55.9339 119.398C56.2067 118.803 56.343 118.061 56.343 117.17C56.343 116.28 56.2067 115.542 55.9339 114.955C55.6612 114.364 55.2578 113.922 54.7237 113.631C54.1934 113.335 53.5343 113.188 52.7464 113.188H50.951V121.176ZM64.2095 123.17C63.3345 123.17 62.5788 122.989 61.9425 122.625C61.3099 122.258 60.8232 121.739 60.4822 121.068C60.1413 120.394 59.9709 119.6 59.9709 118.688C59.9709 117.79 60.1413 117.002 60.4822 116.324C60.8269 115.642 61.308 115.112 61.9254 114.733C62.5429 114.35 63.2682 114.159 64.1016 114.159C64.6394 114.159 65.147 114.246 65.6243 114.42C66.1054 114.591 66.5296 114.856 66.897 115.216C67.2682 115.576 67.5599 116.034 67.772 116.591C67.9841 117.144 68.0902 117.803 68.0902 118.568V119.199H60.9368V117.812H66.1186C66.1148 117.419 66.0296 117.068 65.8629 116.761C65.6963 116.451 65.4633 116.206 65.1641 116.028C64.8686 115.85 64.5239 115.761 64.13 115.761C63.7095 115.761 63.3402 115.864 63.022 116.068C62.7038 116.269 62.4557 116.534 62.2777 116.864C62.1035 117.189 62.0144 117.547 62.0107 117.938V119.148C62.0107 119.655 62.1035 120.091 62.2891 120.455C62.4747 120.814 62.7341 121.091 63.0675 121.284C63.4008 121.473 63.791 121.568 64.2379 121.568C64.5372 121.568 64.808 121.527 65.0504 121.443C65.2929 121.356 65.5031 121.229 65.6811 121.062C65.8591 120.896 65.9936 120.689 66.0845 120.443L68.005 120.659C67.8838 121.167 67.6527 121.61 67.3118 121.989C66.9747 122.364 66.5429 122.655 66.0163 122.864C65.4898 123.068 64.8875 123.17 64.2095 123.17ZM76.728 116.58L74.853 116.784C74.8 116.595 74.7071 116.417 74.5746 116.25C74.4458 116.083 74.2715 115.949 74.0518 115.847C73.8321 115.744 73.5632 115.693 73.245 115.693C72.817 115.693 72.4571 115.786 72.1655 115.972C71.8776 116.157 71.7356 116.398 71.7393 116.693C71.7356 116.947 71.8284 117.153 72.0178 117.312C72.2109 117.472 72.5291 117.602 72.9723 117.705L74.4609 118.023C75.2867 118.201 75.9003 118.483 76.3018 118.869C76.7071 119.256 76.9117 119.761 76.9155 120.386C76.9117 120.936 76.7507 121.42 76.4325 121.841C76.1181 122.258 75.6806 122.583 75.12 122.818C74.5594 123.053 73.9155 123.17 73.1882 123.17C72.12 123.17 71.2602 122.947 70.6087 122.5C69.9571 122.049 69.5689 121.422 69.4439 120.619L71.4496 120.426C71.5405 120.82 71.7337 121.117 72.0291 121.318C72.3246 121.519 72.709 121.619 73.1825 121.619C73.6712 121.619 74.0632 121.519 74.3587 121.318C74.6579 121.117 74.8075 120.869 74.8075 120.574C74.8075 120.324 74.7109 120.117 74.5178 119.955C74.3284 119.792 74.0329 119.667 73.6314 119.58L72.1428 119.267C71.3056 119.093 70.6863 118.799 70.2848 118.386C69.8833 117.97 69.6844 117.443 69.6882 116.807C69.6844 116.269 69.8303 115.803 70.1257 115.409C70.425 115.011 70.8397 114.705 71.37 114.489C71.9041 114.269 72.5196 114.159 73.2166 114.159C74.2393 114.159 75.0443 114.377 75.6314 114.812C76.2223 115.248 76.5878 115.837 76.728 116.58ZM78.6115 123V114.273H80.6683V123H78.6115ZM79.6456 113.034C79.3198 113.034 79.0395 112.926 78.8047 112.71C78.5698 112.491 78.4524 112.227 78.4524 111.92C78.4524 111.61 78.5698 111.347 78.8047 111.131C79.0395 110.911 79.3198 110.801 79.6456 110.801C79.9751 110.801 80.2554 110.911 80.4865 111.131C80.7214 111.347 80.8388 111.61 80.8388 111.92C80.8388 112.227 80.7214 112.491 80.4865 112.71C80.2554 112.926 79.9751 113.034 79.6456 113.034ZM86.5788 126.455C85.8402 126.455 85.2057 126.354 84.6754 126.153C84.1451 125.956 83.719 125.691 83.397 125.358C83.075 125.025 82.8516 124.655 82.7266 124.25L84.5788 123.801C84.6622 123.972 84.7834 124.14 84.9425 124.307C85.1016 124.477 85.3156 124.617 85.5845 124.727C85.8572 124.841 86.2 124.898 86.6129 124.898C87.1963 124.898 87.6792 124.756 88.0618 124.472C88.4444 124.191 88.6357 123.729 88.6357 123.085V121.432H88.5334C88.4273 121.644 88.272 121.862 88.0675 122.085C87.8667 122.309 87.5997 122.496 87.2663 122.648C86.9368 122.799 86.522 122.875 86.022 122.875C85.3516 122.875 84.7436 122.718 84.1982 122.403C83.6565 122.085 83.2247 121.612 82.9027 120.983C82.5845 120.35 82.4254 119.559 82.4254 118.608C82.4254 117.65 82.5845 116.841 82.9027 116.182C83.2247 115.519 83.6584 115.017 84.2038 114.676C84.7493 114.331 85.3572 114.159 86.0277 114.159C86.5391 114.159 86.9595 114.246 87.2891 114.42C87.6224 114.591 87.8875 114.797 88.0845 115.04C88.2815 115.278 88.4311 115.504 88.5334 115.716H88.647V114.273H90.6754V123.142C90.6754 123.888 90.4974 124.506 90.1413 124.994C89.7853 125.483 89.2985 125.848 88.6811 126.091C88.0637 126.333 87.3629 126.455 86.5788 126.455ZM86.5959 121.261C87.0315 121.261 87.4027 121.155 87.7095 120.943C88.0163 120.731 88.2493 120.426 88.4084 120.028C88.5675 119.631 88.647 119.153 88.647 118.597C88.647 118.047 88.5675 117.566 88.4084 117.153C88.2531 116.741 88.022 116.42 87.7152 116.193C87.4122 115.962 87.0391 115.847 86.5959 115.847C86.1375 115.847 85.755 115.966 85.4482 116.205C85.1413 116.443 84.9103 116.771 84.755 117.188C84.5997 117.6 84.522 118.07 84.522 118.597C84.522 119.131 84.5997 119.598 84.755 120C84.9141 120.398 85.147 120.708 85.4538 120.932C85.7644 121.152 86.1451 121.261 86.5959 121.261ZM94.8402 117.886V123H92.7834V114.273H94.7493V115.756H94.8516C95.0523 115.267 95.3724 114.879 95.8118 114.591C96.255 114.303 96.8023 114.159 97.4538 114.159C98.0561 114.159 98.5807 114.288 99.0277 114.545C99.4785 114.803 99.8269 115.176 100.073 115.665C100.323 116.153 100.446 116.746 100.442 117.443V123H98.3857V117.761C98.3857 117.178 98.2341 116.722 97.9311 116.392C97.6319 116.062 97.2171 115.898 96.6868 115.898C96.3269 115.898 96.0069 115.977 95.7266 116.136C95.45 116.292 95.2322 116.517 95.0732 116.812C94.9179 117.108 94.8402 117.466 94.8402 117.886ZM106.397 123.17C105.522 123.17 104.766 122.989 104.13 122.625C103.497 122.258 103.011 121.739 102.67 121.068C102.329 120.394 102.158 119.6 102.158 118.688C102.158 117.79 102.329 117.002 102.67 116.324C103.014 115.642 103.496 115.112 104.113 114.733C104.73 114.35 105.456 114.159 106.289 114.159C106.827 114.159 107.335 114.246 107.812 114.42C108.293 114.591 108.717 114.856 109.085 115.216C109.456 115.576 109.747 116.034 109.96 116.591C110.172 117.144 110.278 117.803 110.278 118.568V119.199H103.124V117.812H108.306C108.302 117.419 108.217 117.068 108.05 116.761C107.884 116.451 107.651 116.206 107.352 116.028C107.056 115.85 106.711 115.761 106.317 115.761C105.897 115.761 105.528 115.864 105.21 116.068C104.891 116.269 104.643 116.534 104.465 116.864C104.291 117.189 104.202 117.547 104.198 117.938V119.148C104.198 119.655 104.291 120.091 104.477 120.455C104.662 120.814 104.922 121.091 105.255 121.284C105.588 121.473 105.978 121.568 106.425 121.568C106.725 121.568 106.996 121.527 107.238 121.443C107.48 121.356 107.691 121.229 107.869 121.062C108.047 120.896 108.181 120.689 108.272 120.443L110.192 120.659C110.071 121.167 109.84 121.61 109.499 121.989C109.162 122.364 108.73 122.655 108.204 122.864C107.677 123.068 107.075 123.17 106.397 123.17ZM112.018 123V114.273H114.012V115.727H114.103C114.262 115.223 114.535 114.835 114.921 114.562C115.311 114.286 115.756 114.148 116.256 114.148C116.37 114.148 116.497 114.153 116.637 114.165C116.781 114.172 116.9 114.186 116.995 114.205V116.097C116.908 116.066 116.77 116.04 116.58 116.017C116.395 115.991 116.215 115.977 116.04 115.977C115.665 115.977 115.328 116.059 115.029 116.222C114.734 116.381 114.501 116.602 114.33 116.886C114.16 117.17 114.075 117.498 114.075 117.869V123H112.018Z" fill="#161616"/>
<path d="M55.7282 80.4545V45.9091H57.9413V80.4545H55.7282ZM61.5983 57.3118C61.4903 56.2232 61.027 55.3776 60.2084 54.7749C59.3897 54.1721 58.2787 53.8707 56.8753 53.8707C55.9217 53.8707 55.1165 54.0057 54.4598 54.2756C53.8031 54.5365 53.2993 54.9008 52.9484 55.3686C52.6066 55.8364 52.4356 56.3672 52.4356 56.9609C52.4176 57.4557 52.5211 57.8875 52.746 58.2564C52.9799 58.6252 53.2993 58.9446 53.7041 59.2145C54.1089 59.4754 54.5767 59.7048 55.1075 59.9027C55.6383 60.0916 56.205 60.2536 56.8078 60.3885L59.2907 60.9822C60.4962 61.2521 61.6028 61.612 62.6104 62.0618C63.6179 62.5116 64.4906 63.0649 65.2282 63.7216C65.9659 64.3783 66.5372 65.152 66.942 66.0426C67.3559 66.9332 67.5673 67.9543 67.5763 69.1058C67.5673 70.7971 67.1354 72.2635 66.2808 73.505C65.4352 74.7375 64.2117 75.6955 62.6104 76.3793C61.018 77.054 59.0973 77.3913 56.8483 77.3913C54.6172 77.3913 52.674 77.0495 51.0187 76.3658C49.3724 75.6821 48.086 74.67 47.1594 73.3295C46.2417 71.9801 45.7604 70.3113 45.7155 68.3232H51.3696C51.4326 69.2498 51.6979 70.0234 52.1657 70.6442C52.6425 71.2559 53.2768 71.7192 54.0684 72.0341C54.8691 72.34 55.7732 72.4929 56.7808 72.4929C57.7704 72.4929 58.6295 72.349 59.3582 72.0611C60.0959 71.7732 60.6672 71.3729 61.072 70.8601C61.4768 70.3473 61.6792 69.758 61.6792 69.0923C61.6792 68.4716 61.4948 67.9498 61.126 67.527C60.7661 67.1042 60.2354 66.7443 59.5336 66.4474C58.8409 66.1506 57.9908 65.8807 56.9832 65.6378L53.974 64.8821C51.644 64.3153 49.8042 63.4292 48.4548 62.2237C47.1054 61.0182 46.4352 59.3944 46.4442 57.3523C46.4352 55.679 46.8805 54.2171 47.7801 52.9666C48.6887 51.7161 49.9347 50.7401 51.518 50.0384C53.1014 49.3366 54.9006 48.9858 56.9157 48.9858C58.9669 48.9858 60.7571 49.3366 62.2865 50.0384C63.8248 50.7401 65.0213 51.7161 65.876 52.9666C66.7306 54.2171 67.1714 55.6655 67.1984 57.3118H61.5983ZM81.4383 77.3778C79.5311 77.3778 77.8308 77.027 76.3374 76.3253C74.8531 75.6236 73.6746 74.6565 72.8019 73.424C71.9293 72.1915 71.475 70.7791 71.439 69.1868H77.1066C77.1696 70.2573 77.6194 71.1255 78.4561 71.7912C79.2927 72.4569 80.2868 72.7898 81.4383 72.7898C82.3559 72.7898 83.1656 72.5874 83.8673 72.1825C84.578 71.7687 85.1312 71.1974 85.5271 70.4688C85.9319 69.7311 86.1343 68.8854 86.1343 67.9318C86.1343 66.9602 85.9274 66.1056 85.5136 65.3679C85.1088 64.6302 84.5465 64.0545 83.8268 63.6406C83.1071 63.2268 82.2839 63.0154 81.3573 63.0064C80.5477 63.0064 79.7605 63.1728 78.9958 63.5057C78.2401 63.8385 77.6509 64.2929 77.2281 64.8686L72.0328 63.9375L73.3417 49.3636H90.2366V54.1406H78.1592L77.444 61.0632H77.6059C78.0917 60.3795 78.8249 59.8127 79.8055 59.3629C80.7861 58.9131 81.8836 58.6882 83.0981 58.6882C84.7624 58.6882 86.2468 59.0795 87.5512 59.8622C88.8557 60.6449 89.8857 61.7199 90.6414 63.0874C91.3971 64.4458 91.7704 66.0111 91.7615 67.7834C91.7704 69.6456 91.3386 71.3009 90.466 72.7493C89.6024 74.1887 88.3924 75.3222 86.836 76.1499C85.2887 76.9685 83.4894 77.3778 81.4383 77.3778ZM95.9987 77V49.3636H101.842V61.549H102.206L112.151 49.3636H119.155L108.899 61.7379L119.276 77H112.286L104.716 65.6378L101.842 69.1463V77H95.9987Z" fill="#161616"/>
</svg>
