<svg width="90" height="59" viewBox="0 0 90 59" fill="none" xmlns="http://www.w3.org/2000/svg">
<path fill-rule="evenodd" clip-rule="evenodd" d="M48.1929 39.2902C47.7961 39.8678 47.6472 40.6558 47.0022 41.0617C46.8633 41.1491 46.8527 41.2875 46.8192 41.438C46.7799 41.6147 45.7777 42.52 45.6641 42.675C45.3455 43.1092 44.6234 43.0469 44.4535 43.5415C44.2519 44.1298 43.8031 44.2921 43.363 44.6C42.286 45.3537 41.128 45.8613 39.6707 46.2187C40.0331 45.9263 40.2394 45.7046 40.2511 45.3861C40.4387 45.4402 40.5112 45.621 40.7201 45.5472C41.2493 44.7356 42.2469 44.4964 42.9911 43.8953C43.6858 43.3354 44.4798 42.8914 45.1273 42.2453C46.1314 41.2428 47.1692 40.2735 48.1929 39.2902V39.2902ZM24.7766 42.8762C24.2897 42.7621 23.8201 42.818 23.3396 42.7237C22.1896 42.4976 21.1394 42.0183 20.0508 41.6373C19.5883 41.475 19.317 41.0557 19.4311 40.6106C19.8138 39.1202 20.14 37.6105 20.8879 36.239C21.238 35.5972 21.5518 34.9362 21.89 34.2874C22.249 33.598 22.7555 33.0012 23.1774 32.3529C23.5858 31.7263 24.2189 31.2583 24.655 30.6073C25.2545 29.7121 26.4122 29.4076 27.0835 28.5525C27.6134 28.6144 27.7797 28.0761 28.1698 27.8944C29.0238 27.4968 29.8635 27.0681 30.7032 26.64C32.1493 25.9015 33.7198 25.4767 35.2873 25.2185C36.4997 25.0188 37.7606 24.885 39.0393 25.0443C39.9387 25.1561 40.8221 25.2829 41.6651 25.5793C43.0773 26.0749 44.4514 26.6635 45.4461 27.8652C45.59 28.0389 45.7466 28.2044 45.9153 28.3531C47.1115 29.4083 46.9839 30.583 46.7291 31.9518C46.5981 32.6555 46.148 33.2601 46.1785 33.9975C46.0024 34.0587 45.6753 33.8951 45.7027 34.2777C45.7195 34.5086 45.5735 34.6178 45.4332 34.7295C45.1614 34.9464 45.6655 35.0813 45.4832 35.2772C44.9018 35.2561 44.8233 35.6072 44.8821 36.0596C44.9894 36.0726 45.0867 36.0842 45.2661 36.1059C44.7689 36.7094 44.2271 37.1798 43.8245 37.7968C43.2415 38.6889 42.2123 39.1732 41.3642 39.7886C40.566 40.3687 39.686 40.939 38.6923 41.2278C38.6582 41.2376 38.6763 41.4287 38.6699 41.5422C37.8043 41.3669 37.0361 41.7924 36.2726 42.0169C34.8675 42.4299 33.4839 42.8549 32.0065 42.8308C31.7798 42.8268 31.6799 43.0343 31.5348 43.0525C31.1932 43.0957 30.9808 43.3618 30.6773 43.4638L30.3797 43.154C30.1221 43.0311 30.0036 43.3287 29.7481 43.3007C29.533 43.277 29.3983 43.0705 29.0669 43.1883C28.5698 43.3649 27.9536 43.2854 27.4026 43.2093C26.8674 43.1353 26.3 43.5425 25.7818 43.0484C25.6041 42.8791 25.3175 43.1636 25.0681 43.1797L24.7766 42.8762ZM17.6177 48.498C17.3783 49.1887 18.0413 49.5333 18.2502 50.0449C18.3973 50.4032 18.4909 50.9824 18.9261 51.1019C19.3925 51.2305 19.3198 51.7007 19.6388 51.9072C19.8597 52.0499 20.1395 52.2389 20.0981 52.6198C20.087 52.7212 20.2507 52.9149 20.3644 52.943C20.6631 53.0172 20.9746 53.0276 20.8641 53.471C21.5403 53.6404 21.8422 54.3003 22.3973 54.6372C23.0358 55.025 23.6788 55.4158 24.2169 55.9443C24.52 55.9507 24.8213 55.957 25.122 55.9628C25.0841 56.3042 25.2247 56.5074 25.5603 56.6146C26.7899 57.0061 27.9378 57.6798 29.2079 57.8899C30.1662 58.0486 31.0898 58.387 32.0962 58.3645C33.1554 58.3407 34.2128 58.5632 35.2819 58.5724C36.8275 58.5856 38.3588 58.3776 39.8999 58.3371C40.4133 58.0076 41.0089 58.1523 41.5603 58.0459C42.1561 57.9313 42.7639 57.9488 43.3604 57.7853C43.9386 57.6267 44.5312 57.4664 45.1497 57.4771C45.3978 57.4812 45.4077 57.2643 45.3948 57.0147C45.8731 56.9637 46.3365 57.2106 46.8622 56.9256C47.2828 56.6979 47.8905 56.7758 48.4249 56.657C50.0024 56.3059 51.5597 55.8972 53.0962 55.4034C53.6591 55.2222 54.1966 54.9041 54.769 54.8286C55.3515 54.7521 55.7934 54.381 56.3621 54.2879C56.9393 54.1934 57.5059 53.9731 58.0484 53.7415C59.6812 53.0443 61.376 52.5162 63.0124 51.8155C64.7407 51.0754 66.4865 50.3823 68.183 49.563C68.7749 49.277 69.4048 49.0705 70.0001 48.7629C70.7144 48.3938 71.4102 47.9833 72.1407 47.6509C72.8441 47.3307 73.587 47.111 74.203 46.6026C74.3359 46.4939 74.6518 46.5615 74.759 46.3401C74.8529 46.146 75.2138 46.453 75.212 46.0308C75.2107 45.831 75.5812 46.0133 75.7736 45.9548C76.0566 45.8697 76.2158 45.6116 76.474 45.4647C77.7283 44.7502 79.0415 44.1459 80.2481 43.3291C80.9288 42.8683 81.6106 42.3517 82.4329 42.061C82.907 41.8933 83.1848 41.2784 83.7579 41.1534C84.2729 40.456 85.2011 40.2755 85.7226 39.5832C85.8662 39.3924 86.2479 39.5117 86.2745 39.0875C86.2845 38.9274 86.7957 38.9831 86.989 38.6941C87.1521 38.4495 87.4124 38.269 87.6296 38.0604C87.8467 37.8518 88.057 37.6354 88.2825 37.4361C88.8694 36.9171 89.1797 36.29 89.3551 35.5046C89.5119 34.8009 89.6067 34.1343 89.5005 33.4282C89.4623 33.1749 89.2991 33.06 89.106 32.96C88.626 33.0518 88.7327 33.5334 88.5407 33.8143C88.3886 34.0374 88.5011 34.371 88.1577 34.5624C87.9415 34.6835 87.956 35.0819 87.515 35.0581C87.0925 35.0355 87.3914 35.6989 86.9615 35.8074C86.8881 35.7573 86.8014 35.6976 86.7015 35.6294C86.683 35.6287 86.6268 35.6114 86.6106 35.6299C86.1191 36.1807 85.4641 36.5141 84.8802 36.9412C84.728 37.0518 84.817 37.2144 84.767 37.371C84.6417 37.3069 84.5179 37.2438 84.3947 37.1807C84.1404 37.2837 83.949 37.4325 83.9777 37.7541C83.9255 37.7715 83.8658 37.8151 83.8176 37.8045C83.4388 37.7204 83.2296 38.0007 82.9412 38.1536C81.4216 38.958 80.0504 40.0316 78.4235 40.6381C77.713 41.3166 76.7423 41.5019 75.9101 41.9515C75.3909 42.232 74.8447 42.4987 74.3382 42.7791C73.8153 43.0683 73.0967 42.9953 72.7423 43.5896C71.7701 43.7918 70.9747 44.4197 70.0446 44.7136C69.3751 44.9254 68.8001 45.3277 68.1356 45.5681C67.4958 45.7995 66.8541 46.1282 66.2125 46.3775C65.2417 46.7552 64.3122 47.2375 63.2829 47.4957C62.7261 47.6359 62.1462 47.8472 61.615 48.0864C59.1531 49.1923 56.5607 49.8883 53.9854 50.6442C53.216 50.8699 52.3854 50.9367 51.705 51.3949C51.3504 51.6339 50.9406 51.4302 50.5734 51.6824C50.3165 51.8586 49.8621 51.7173 49.5401 51.8371C49.1705 51.975 48.8022 52.0519 48.4217 52.136C47.8118 52.2711 47.1465 52.3444 46.7524 52.889C46.5051 52.8623 46.6516 52.7135 46.6004 52.6375C45.6523 52.6017 45.5578 52.6505 45.2673 53.3346C45.1238 53.3282 44.9795 53.322 44.8423 53.3161C44.8349 53.2031 44.8287 53.1022 44.8233 53.0195C43.923 52.8919 43.1227 53.0231 42.5748 53.7861C42.3288 53.6686 42.5395 53.4025 42.2798 53.305C41.3812 53.4308 40.437 53.6526 39.4902 53.6655C38.7855 53.675 38.0729 53.6824 37.3639 53.6553C36.6113 53.6269 35.858 53.6218 35.1051 53.6069C34.352 53.5918 33.5854 53.6631 32.8493 53.5425C31.5202 53.3248 30.1913 53.1235 28.8775 52.7573C27.8189 52.4618 26.8214 52.0554 25.8255 51.6411C25.153 51.3613 24.5308 50.9216 23.9541 50.4671C23.6674 50.2411 23.3857 50.0459 23.0626 49.887C22.9434 49.8281 22.8219 49.7041 22.8643 49.5216C23.0236 49.2922 23.3032 49.313 23.4709 49.392C24.4518 49.854 25.5111 49.8261 26.5453 49.9067C27.5573 49.9856 28.5777 49.9818 29.5937 49.9758C31.252 49.967 32.8804 49.749 34.4943 49.3376C35.514 49.0777 36.5491 48.8961 37.5622 48.584C39.1372 48.0992 40.6556 47.4975 42.0876 46.6917C42.2867 46.5791 42.5604 46.6769 42.6689 46.4652C42.8254 46.1588 43.3754 46.3977 43.3577 46.057C43.3331 45.5889 43.7575 45.9004 43.8695 45.6606C43.9708 45.445 44.1934 45.2989 44.5096 45.307C44.7111 45.3123 44.6819 45.0284 44.6952 44.8353C45.1968 45.0352 45.5058 44.6173 45.7787 44.389C46.6425 43.6655 47.5161 42.917 48.2105 42.0392C48.7127 41.4051 49.2634 40.7802 49.6598 40.0635C50.0471 39.3629 50.3409 38.6092 50.7507 37.9238C51.0344 37.4496 51.056 36.916 51.2549 36.4331C51.448 35.9645 51.4671 35.4385 51.6375 35.0036C51.8876 34.3665 51.636 33.7674 51.7568 33.1494C51.8685 32.5769 51.625 31.9389 51.4697 31.3725C51.2798 30.6791 51.0784 29.957 50.7398 29.311C50.4146 28.6907 50.1534 28.0428 49.7789 27.4371C49.2863 26.6397 48.8356 25.8333 48.177 25.1518C47.8834 24.848 47.8193 24.3818 47.4658 24.0838C47.0242 23.7114 46.6682 23.266 46.1201 22.989C45.6189 22.7358 45.2902 22.2279 44.7795 21.9001C42.8817 20.682 42.6356 20.3768 40.4038 19.6403C40.0738 19.5311 39.6533 19.6806 39.4001 19.3392C37.5842 19.3788 35.7596 19.0656 33.9526 19.4505C31.7546 19.9187 29.659 20.6705 27.6665 21.7167C27.1096 22.0093 26.47 22.1417 25.9904 22.5978C26.598 21.515 27.9082 21.4224 28.9642 20.5068C27.8598 20.7831 27.1494 21.2669 26.4215 21.6858C25.4544 22.2437 24.5287 22.8561 23.6818 23.6122C23.2985 23.9545 22.8144 24.241 22.3959 24.5856C22.0196 24.8959 22.0039 25.4331 21.5751 25.7209C21.2057 25.9689 20.8416 26.2865 20.6016 26.6549C19.8159 27.8633 18.9844 29.0383 18.2605 30.2937C17.4819 31.644 16.9616 33.0766 16.4699 34.5253C16.1498 35.4691 15.855 36.4519 15.925 37.4725C15.9541 37.8873 15.6089 38.274 15.8652 38.6981C15.8802 38.7233 15.6973 38.8289 15.7221 38.9659C15.7751 39.2584 15.4749 39.2975 15.4002 39.5049C14.3205 38.8569 13.3397 38.1605 12.3404 37.4933C11.5894 36.9919 10.9713 36.3485 10.2343 35.8365C9.50625 35.3315 8.88455 34.6209 8.35123 33.9001C7.56951 32.8436 6.74265 31.8028 6.15125 30.6197C5.57394 29.4645 5.2308 28.2158 4.8159 26.9964C4.6859 26.6142 4.99236 26.175 4.64275 25.8314C4.85582 24.6751 4.31786 23.5297 4.67661 22.3396C4.89221 21.626 4.75795 20.8141 4.90027 20.0445C5.10675 18.9243 5.40157 17.8256 5.61267 16.709C5.7838 15.8032 6.12384 14.9464 6.36331 14.0651C6.71601 12.7683 7.33435 11.5327 7.93671 10.3195C8.27682 9.63438 8.54669 8.91682 8.96914 8.26003C9.56785 7.33055 10.0168 6.30313 10.8921 5.57489C11.2502 5.27743 11.737 5.19289 12.0561 4.79739C12.2465 4.561 12.262 4.34687 12.2656 4.09296C11.6788 4.21094 11.1557 4.56983 10.3703 4.53002C10.7962 4.3259 10.4358 3.73248 11.1188 3.71282C11.4397 3.70316 11.6638 3.1496 12.1479 3.2314C12.1312 2.99583 12.1208 2.8468 12.0998 2.54758C11.8919 2.57386 11.6315 2.57127 11.3974 2.648C11.1974 2.7137 11.0251 2.9361 10.8214 2.53389C11.3125 2.46877 11.5637 2.09651 11.9052 1.76444C11.5641 1.43681 11.3659 1.03501 10.8967 0.959662C10.8619 0.793157 11.1405 0.76331 11.0419 0.569156C10.7759 0.572596 10.4912 0.480167 10.2037 0.591564C9.96391 0.684589 9.71525 0.755169 9.46193 0.838839C9.43572 0.525155 9.82695 0.517491 9.79068 0.237587C9.37296 0.30975 9.01413 0.454577 8.70162 0.771999C7.9346 1.54899 7.1546 2.31606 6.33654 3.03813C5.91485 3.40989 5.70368 3.91771 5.37815 4.34355C4.68043 5.25845 4.06906 6.26385 3.58085 7.30658C3.16946 8.18593 2.58019 8.9955 2.39438 9.97635C1.27137 11.908 1.15003 14.1404 0.53981 16.2256C0.390424 16.735 0.388167 17.3138 0.359299 17.8464C0.250986 19.8538 -0.0455604 21.8548 0.0510103 23.871C0.184043 26.6529 0.660365 29.3783 1.66119 31.9807C2.07266 33.05 2.61065 34.0777 3.16498 35.0942C3.56872 35.8344 4.12565 36.4877 4.41416 37.2915C4.43746 37.3564 4.49764 37.4083 4.54043 37.466C5.32321 38.5134 8.57343 42.2438 9.41351 42.8307C10.3238 43.4669 11.1361 44.2276 12.0658 44.8295C12.9495 45.4009 13.8626 45.9281 14.7605 46.4779C14.8227 46.5163 14.8599 46.6231 14.9194 46.6331C16.0718 46.8241 16.8409 47.5793 17.6177 48.498V48.498Z" fill="#938C8C"/>
</svg>
