<svg width="121" height="126" viewBox="0 0 121 126" fill="none" xmlns="http://www.w3.org/2000/svg">
<path fill-rule="evenodd" clip-rule="evenodd" d="M95.1183 83.0328L94.7292 82.7949C94.1558 84.076 93.5824 85.3574 93.0098 86.6384C93.8776 85.5082 94.7929 84.41 95.1183 83.0328M96.4473 78.2047C97.2276 76.6062 97.9346 74.872 97.8302 72.9326C97.3694 74.6902 96.9084 76.4475 96.4473 78.2047M18.0801 33.303C18.3022 33.0532 18.5307 32.8084 18.7453 32.5518C23.1718 27.2653 28.0955 22.4917 33.4702 18.1724C36.4987 15.7388 40.0849 14.0676 43.0162 11.5944C46.2741 8.84589 49.5294 6.26725 53.5374 4.74541C53.568 4.73354 53.541 4.56832 53.541 4.2998C45.2536 4.98802 37.9821 8.15012 31.7262 13.438C25.433 18.758 20.257 24.9955 18.0801 33.303M114.874 47.3229C114.77 36.2619 111.193 26.5665 103.18 18.7553C96.0672 11.8217 88.0675 6.47442 77.7969 5.49609C96.1381 14.1786 108.48 28.0757 114.874 47.3229M79.9277 10.7549C80.9752 12.1986 82.5629 12.9408 83.8623 14.0476C91.3271 20.4068 96.3897 28.3356 99.7509 37.5084C103.065 46.5527 103.7 55.8821 102.989 65.3241C102.543 71.239 101.077 77.0107 98.9425 82.5805C98.7758 83.0153 98.237 83.5692 98.8626 83.9612C99.3841 84.2873 99.635 83.6204 99.9561 83.3461C103.327 80.4665 106.033 77.0064 108.236 73.2047C110.255 69.7219 111.973 66.1717 111.728 61.8334C110.635 42.4486 102.636 26.7799 87.0733 15.072C84.8449 13.3954 82.5013 11.875 79.9277 10.7549M107.554 83.3067C106.771 83.2606 106.323 83.5536 106.016 83.9377C104.339 86.0314 102.173 87.4557 99.9469 88.9106C98.6651 89.7482 97.3697 90.5721 96.0555 91.3708C93.9236 92.6666 92.784 94.8461 91.2834 96.7311C86.8197 102.338 81.6859 107.235 75.5956 111.117C68.3269 115.75 60.6245 118.767 51.8689 119.151C47.1871 119.356 42.776 118.922 38.2987 117.516C31.0688 115.247 25.2396 111.004 20.2759 105.501C12.8496 97.2671 9.05542 87.2948 6.9458 76.5754C6.78634 75.7641 6.54374 74.9693 6.33965 74.167C5.77598 76.1715 5.86057 78.1224 5.82673 80.0697C5.68671 88.2019 7.84169 95.855 11.8608 102.742C15.7763 109.452 21.4749 114.63 28.6903 117.926C35.2139 120.907 42.0359 122.353 49.2017 121.979C57.078 121.569 64.5716 119.549 71.7683 116.369C83.9747 110.976 94.5682 103.498 102.423 92.5234C104.457 89.6813 106.216 86.6664 107.554 83.3067M36.453 22.1807C36.0653 22.3426 35.8386 22.3822 35.6841 22.5097C31.1427 26.2635 27.1387 30.5551 23.3557 35.0479C20.4499 38.4998 17.9753 42.2824 15.7149 46.1752C14.1783 48.8226 12.7039 51.5567 12.3623 54.7159C11.5323 62.3903 11.6828 70.0182 13.2298 77.6054C15.4359 88.4275 19.4928 98.327 27.2564 106.451C31.2086 110.587 35.9203 113.539 41.341 115.194C50.1207 117.876 58.3491 115.63 66.2872 111.82C71.4233 109.355 75.9373 105.926 80.1451 102.14C82.0618 100.415 83.9021 98.5156 85.4164 96.0291C82.7136 96.3376 80.3722 96.9362 77.967 97.19C69.7823 98.0535 62.1047 96.3974 54.9278 92.5805C45.1629 87.388 38.6152 79.3256 34.9229 68.9621C30.218 55.758 30.5586 42.4268 34.2332 29.066C34.8545 26.807 35.6672 24.6006 36.453 22.1807M57.6096 10.2553C54.332 10.7981 51.812 11.8243 49.6074 13.6078C47.3761 15.4122 46.0296 17.8382 44.5819 20.274C42.5957 23.615 41.2272 27.2263 40.174 30.8459C39.2428 34.0443 38.6032 37.4152 38.2253 40.8105C37.3294 48.8484 37.1962 56.778 39.4966 64.6449C41.8956 72.8516 45.8499 80.0483 52.348 85.7408C62.8771 94.9643 75.9574 96.5279 88.32 90.9837C89.1241 90.6234 89.8642 90.1811 90.3285 89.4003C93.3599 84.3071 95.5171 78.8158 96.8597 73.0924C98.6781 65.3421 98.948 57.4475 97.9024 49.5244C96.405 38.1765 92.3139 27.976 84.4441 19.5242C80.3663 15.1455 75.9272 11.1735 69.7372 9.99542C67.8907 9.64411 65.8325 8.94402 64.3366 10.4774C62.7007 12.1544 61.1544 14.0459 60.0645 16.1062C55.4385 24.8528 54.4673 34.0659 57.2803 43.5785C58.3738 47.2769 60.7163 50.1323 63.9886 52.2218C64.6105 52.6192 65.8923 52.8827 65.4629 53.793C65.0846 54.596 63.8809 54.3671 63.0023 54.1151C62.6751 54.0212 62.362 53.8484 62.0704 53.667C58.4066 51.386 55.3992 48.4575 53.7615 44.4132C50.2852 35.8285 50.6775 27.142 53.3836 18.4454C54.26 15.6278 55.703 13.0769 57.6096 10.2553M17.3529 22.8909C16.8598 22.9028 16.6805 23.3099 16.4876 23.641C14.6674 26.7707 13.0034 29.9883 11.8847 33.4333C11.5013 34.6128 10.4503 35.625 10.7447 37.0784C11.4358 36.7174 11.7414 36.2221 11.7731 35.5278C11.8271 34.3407 12.4289 33.3404 12.9141 32.3016C14.3837 29.1553 15.8494 26.0073 17.3162 22.8596C19.4071 20.1175 21.4987 17.3755 23.5896 14.6338C22.1661 15.9083 20.7792 17.198 19.7174 18.7911C18.8391 20.1082 17.5631 21.1898 17.3529 22.8909M0 78.8597C0.12922 72.854 0.95277 66.9319 3.03432 61.3247C5.2199 55.4378 6.32852 49.3382 7.68875 43.2591C10.163 32.1956 14.41 21.9041 22.3726 13.5206C29.0301 6.51108 37.0886 1.97112 46.6918 0.551501C53.701 -0.484776 60.6843 -0.0902782 67.5048 2.05498C68.2125 2.27743 68.9428 2.47828 69.707 2.34942C76.3526 1.22999 82.6703 2.41025 88.7894 5.04251C96.2611 8.25681 102.873 12.7068 108.376 18.7247C112.599 23.3435 115.935 28.5709 117.893 34.5075C120.12 41.2593 121.096 48.1968 119.723 55.3259C119.4 57.0014 119.531 58.8663 119.045 60.4155C118.448 62.3228 118.187 64.2957 117.564 66.1677C116.5 69.368 116.131 72.7046 115.402 75.969C114.484 80.0763 112.928 83.959 111.096 87.7215C108.55 92.95 105.34 97.8103 101.208 101.868C97.5295 105.48 93.7296 108.987 89.1482 111.635C85.8745 113.527 82.7423 115.689 79.3419 117.393C68.3608 122.894 56.7926 125.783 44.4627 125.029C34.9354 124.446 26.1603 121.53 18.4266 115.849C7.62432 107.915 1.69929 97.1721 0.344826 83.8758C0.175292 82.2093 0.112662 80.532 0 78.8597" fill="#F57F94"/>
</svg>
