<svg width="32" height="33" viewBox="0 0 32 33" fill="none" xmlns="http://www.w3.org/2000/svg">
<path d="M20.944 3.12891H10.6185C6.34764 3.12891 2.87439 6.75549 2.87439 11.2149V28.7346C2.87439 29.0921 3.01037 29.4349 3.25242 29.6876C3.49448 29.9403 3.82277 30.0823 4.16508 30.0823H20.944C25.2149 30.0823 28.6882 26.4557 28.6882 21.9963V11.2149C28.6882 6.75549 25.2149 3.12891 20.944 3.12891ZM26.1068 21.9963C26.1068 24.9693 23.7913 27.387 20.944 27.387H5.45577V11.2149C5.45577 8.24197 7.77127 5.82425 10.6185 5.82425H20.944C23.7913 5.82425 26.1068 8.24197 26.1068 11.2149V21.9963Z" fill="white"/>
<path d="M14.4905 18.7426L11.531 15.6524L9.70593 17.558L14.4905 22.5538L22.5018 14.1888L20.6768 12.2832L14.4905 18.7426Z" fill="white"/>
</svg>
