<svg width="168" height="168" viewBox="0 0 168 168" fill="none" xmlns="http://www.w3.org/2000/svg">
<circle cx="85" cy="85" r="82" fill="#161616" stroke="#161616" stroke-width="2"/>
<circle cx="83" cy="83" r="82" fill="#FFC046" stroke="#161616" stroke-width="2"/>
<path d="M46.6314 101.364H48.7393V108.966C48.7393 109.799 48.5424 110.532 48.1484 111.165C47.7583 111.797 47.209 112.292 46.5007 112.648C45.7924 113 44.9647 113.176 44.0178 113.176C43.067 113.176 42.2375 113 41.5291 112.648C40.8208 112.292 40.2715 111.797 39.8814 111.165C39.4912 110.532 39.2962 109.799 39.2962 108.966V101.364H41.4041V108.79C41.4041 109.275 41.5102 109.706 41.7223 110.085C41.9382 110.464 42.2412 110.761 42.6314 110.977C43.0215 111.189 43.4837 111.295 44.0178 111.295C44.5518 111.295 45.014 111.189 45.4041 110.977C45.7981 110.761 46.1011 110.464 46.3132 110.085C46.5253 109.706 46.6314 109.275 46.6314 108.79V101.364ZM53.1385 101.364V113H51.0305V101.364H53.1385ZM63.3331 113H59.3899V101.364H63.4126C64.5679 101.364 65.5604 101.597 66.3899 102.062C67.2232 102.525 67.8634 103.189 68.3104 104.057C68.7573 104.924 68.9808 105.962 68.9808 107.17C68.9808 108.383 68.7554 109.424 68.3047 110.295C67.8577 111.167 67.2119 111.835 66.3672 112.301C65.5263 112.767 64.5149 113 63.3331 113ZM61.4979 111.176H63.2308C64.0414 111.176 64.7176 111.028 65.2592 110.733C65.8009 110.434 66.2081 109.989 66.4808 109.398C66.7536 108.803 66.8899 108.061 66.8899 107.17C66.8899 106.28 66.7536 105.542 66.4808 104.955C66.2081 104.364 65.8047 103.922 65.2706 103.631C64.7403 103.335 64.0812 103.188 63.2933 103.188H61.4979V111.176ZM74.7564 113.17C73.8814 113.17 73.1257 112.989 72.4893 112.625C71.8568 112.258 71.37 111.739 71.0291 111.068C70.6882 110.394 70.5178 109.6 70.5178 108.688C70.5178 107.79 70.6882 107.002 71.0291 106.324C71.3738 105.642 71.8549 105.112 72.4723 104.733C73.0897 104.35 73.8151 104.159 74.6484 104.159C75.1863 104.159 75.6939 104.246 76.1712 104.42C76.6522 104.591 77.0765 104.856 77.4439 105.216C77.8151 105.576 78.1068 106.034 78.3189 106.591C78.531 107.144 78.6371 107.803 78.6371 108.568V109.199H71.4837V107.812H76.6655C76.6617 107.419 76.5765 107.068 76.4098 106.761C76.2431 106.451 76.0102 106.206 75.7109 106.028C75.4155 105.85 75.0708 105.761 74.6768 105.761C74.2564 105.761 73.8871 105.864 73.5689 106.068C73.2507 106.269 73.0026 106.534 72.8246 106.864C72.6503 107.189 72.5613 107.547 72.5575 107.938V109.148C72.5575 109.655 72.6503 110.091 72.8359 110.455C73.0215 110.814 73.281 111.091 73.6143 111.284C73.9477 111.473 74.3378 111.568 74.7848 111.568C75.084 111.568 75.3549 111.527 75.5973 111.443C75.8397 111.356 76.05 111.229 76.228 111.062C76.406 110.896 76.5405 110.689 76.6314 110.443L78.5518 110.659C78.4306 111.167 78.1996 111.61 77.8587 111.989C77.5215 112.364 77.0897 112.655 76.5632 112.864C76.0367 113.068 75.4344 113.17 74.7564 113.17ZM87.2749 106.58L85.3999 106.784C85.3468 106.595 85.254 106.417 85.1214 106.25C84.9927 106.083 84.8184 105.949 84.5987 105.847C84.379 105.744 84.1101 105.693 83.7919 105.693C83.3639 105.693 83.004 105.786 82.7124 105.972C82.4245 106.157 82.2824 106.398 82.2862 106.693C82.2824 106.947 82.3752 107.153 82.5646 107.312C82.7578 107.472 83.076 107.602 83.5192 107.705L85.0078 108.023C85.8336 108.201 86.4472 108.483 86.8487 108.869C87.254 109.256 87.4586 109.761 87.4624 110.386C87.4586 110.936 87.2976 111.42 86.9794 111.841C86.665 112.258 86.2275 112.583 85.6669 112.818C85.1063 113.053 84.4624 113.17 83.7351 113.17C82.6669 113.17 81.8071 112.947 81.1555 112.5C80.504 112.049 80.1158 111.422 79.9908 110.619L81.9964 110.426C82.0874 110.82 82.2805 111.117 82.576 111.318C82.8714 111.519 83.2559 111.619 83.7294 111.619C84.218 111.619 84.6101 111.519 84.9055 111.318C85.2048 111.117 85.3544 110.869 85.3544 110.574C85.3544 110.324 85.2578 110.117 85.0646 109.955C84.8752 109.792 84.5798 109.667 84.1783 109.58L82.6896 109.267C81.8525 109.093 81.2332 108.799 80.8317 108.386C80.4302 107.97 80.2313 107.443 80.2351 106.807C80.2313 106.269 80.3771 105.803 80.6726 105.409C80.9718 105.011 81.3866 104.705 81.9169 104.489C82.451 104.269 83.0665 104.159 83.7635 104.159C84.7862 104.159 85.5911 104.377 86.1783 104.812C86.7692 105.248 87.1347 105.837 87.2749 106.58ZM89.1584 113V104.273H91.2152V113H89.1584ZM90.1925 103.034C89.8667 103.034 89.5864 102.926 89.3516 102.71C89.1167 102.491 88.9993 102.227 88.9993 101.92C88.9993 101.61 89.1167 101.347 89.3516 101.131C89.5864 100.911 89.8667 100.801 90.1925 100.801C90.522 100.801 90.8023 100.911 91.0334 101.131C91.2682 101.347 91.3857 101.61 91.3857 101.92C91.3857 102.227 91.2682 102.491 91.0334 102.71C90.8023 102.926 90.522 103.034 90.1925 103.034ZM97.1257 116.455C96.3871 116.455 95.7526 116.354 95.2223 116.153C94.692 115.956 94.2659 115.691 93.9439 115.358C93.6219 115.025 93.3984 114.655 93.2734 114.25L95.1257 113.801C95.209 113.972 95.3303 114.14 95.4893 114.307C95.6484 114.477 95.8625 114.617 96.1314 114.727C96.4041 114.841 96.7469 114.898 97.1598 114.898C97.7431 114.898 98.2261 114.756 98.6087 114.472C98.9912 114.191 99.1825 113.729 99.1825 113.085V111.432H99.0803C98.9742 111.644 98.8189 111.862 98.6143 112.085C98.4136 112.309 98.1465 112.496 97.8132 112.648C97.4837 112.799 97.0689 112.875 96.5689 112.875C95.8984 112.875 95.2905 112.718 94.745 112.403C94.2034 112.085 93.7715 111.612 93.4496 110.983C93.1314 110.35 92.9723 109.559 92.9723 108.608C92.9723 107.65 93.1314 106.841 93.4496 106.182C93.7715 105.519 94.2053 105.017 94.7507 104.676C95.2962 104.331 95.9041 104.159 96.5746 104.159C97.0859 104.159 97.5064 104.246 97.8359 104.42C98.1693 104.591 98.4344 104.797 98.6314 105.04C98.8284 105.278 98.978 105.504 99.0803 105.716H99.1939V104.273H101.222V113.142C101.222 113.888 101.044 114.506 100.688 114.994C100.332 115.483 99.8454 115.848 99.228 116.091C98.6106 116.333 97.9098 116.455 97.1257 116.455ZM97.1428 111.261C97.5784 111.261 97.9496 111.155 98.2564 110.943C98.5632 110.731 98.7962 110.426 98.9553 110.028C99.1143 109.631 99.1939 109.153 99.1939 108.597C99.1939 108.047 99.1143 107.566 98.9553 107.153C98.8 106.741 98.5689 106.42 98.2621 106.193C97.959 105.962 97.5859 105.847 97.1428 105.847C96.6844 105.847 96.3018 105.966 95.995 106.205C95.6882 106.443 95.4571 106.771 95.3018 107.188C95.1465 107.6 95.0689 108.07 95.0689 108.597C95.0689 109.131 95.1465 109.598 95.3018 110C95.4609 110.398 95.6939 110.708 96.0007 110.932C96.3113 111.152 96.692 111.261 97.1428 111.261ZM105.387 107.886V113H103.33V104.273H105.296V105.756H105.398C105.599 105.267 105.919 104.879 106.359 104.591C106.802 104.303 107.349 104.159 108.001 104.159C108.603 104.159 109.128 104.288 109.575 104.545C110.025 104.803 110.374 105.176 110.62 105.665C110.87 106.153 110.993 106.746 110.989 107.443V113H108.933V107.761C108.933 107.178 108.781 106.722 108.478 106.392C108.179 106.062 107.764 105.898 107.234 105.898C106.874 105.898 106.554 105.977 106.273 106.136C105.997 106.292 105.779 106.517 105.62 106.812C105.465 107.108 105.387 107.466 105.387 107.886ZM116.944 113.17C116.069 113.17 115.313 112.989 114.677 112.625C114.044 112.258 113.558 111.739 113.217 111.068C112.876 110.394 112.705 109.6 112.705 108.688C112.705 107.79 112.876 107.002 113.217 106.324C113.561 105.642 114.042 105.112 114.66 104.733C115.277 104.35 116.003 104.159 116.836 104.159C117.374 104.159 117.881 104.246 118.359 104.42C118.84 104.591 119.264 104.856 119.631 105.216C120.003 105.576 120.294 106.034 120.506 106.591C120.719 107.144 120.825 107.803 120.825 108.568V109.199H113.671V107.812H118.853C118.849 107.419 118.764 107.068 118.597 106.761C118.431 106.451 118.198 106.206 117.898 106.028C117.603 105.85 117.258 105.761 116.864 105.761C116.444 105.761 116.075 105.864 115.756 106.068C115.438 106.269 115.19 106.534 115.012 106.864C114.838 107.189 114.749 107.547 114.745 107.938V109.148C114.745 109.655 114.838 110.091 115.023 110.455C115.209 110.814 115.469 111.091 115.802 111.284C116.135 111.473 116.525 111.568 116.972 111.568C117.272 111.568 117.542 111.527 117.785 111.443C118.027 111.356 118.237 111.229 118.415 111.062C118.594 110.896 118.728 110.689 118.819 110.443L120.739 110.659C120.618 111.167 120.387 111.61 120.046 111.989C119.709 112.364 119.277 112.655 118.751 112.864C118.224 113.068 117.622 113.17 116.944 113.17ZM122.565 113V104.273H124.559V105.727H124.65C124.809 105.223 125.082 104.835 125.468 104.562C125.858 104.286 126.303 104.148 126.803 104.148C126.917 104.148 127.044 104.153 127.184 104.165C127.328 104.172 127.447 104.186 127.542 104.205V106.097C127.455 106.066 127.317 106.04 127.127 106.017C126.942 105.991 126.762 105.977 126.587 105.977C126.212 105.977 125.875 106.059 125.576 106.222C125.281 106.381 125.048 106.602 124.877 106.886C124.707 107.17 124.621 107.498 124.621 107.869V113H122.565Z" fill="#161616"/>
<path d="M56.9128 89.4545V54.9091H59.1259V89.4545H56.9128ZM62.7828 66.3118C62.6749 65.2232 62.2116 64.3776 61.3929 63.7749C60.5743 63.1721 59.4632 62.8707 58.0598 62.8707C57.1062 62.8707 56.3011 63.0057 55.6444 63.2756C54.9876 63.5365 54.4838 63.9008 54.133 64.3686C53.7911 64.8364 53.6202 65.3672 53.6202 65.9609C53.6022 66.4557 53.7057 66.8875 53.9306 67.2564C54.1645 67.6252 54.4838 67.9446 54.8887 68.2145C55.2935 68.4754 55.7613 68.7048 56.2921 68.9027C56.8229 69.0916 57.3896 69.2536 57.9924 69.3885L60.4753 69.9822C61.6808 70.2521 62.7873 70.612 63.7949 71.0618C64.8025 71.5116 65.6751 72.0649 66.4128 72.7216C67.1505 73.3783 67.7218 74.152 68.1266 75.0426C68.5404 75.9332 68.7518 76.9543 68.7608 78.1058C68.7518 79.7971 68.32 81.2635 67.4654 82.505C66.6197 83.7375 65.3962 84.6955 63.7949 85.3793C62.2026 86.054 60.2819 86.3913 58.0328 86.3913C55.8018 86.3913 53.8586 86.0495 52.2033 85.3658C50.557 84.6821 49.2705 83.67 48.3439 82.3295C47.4263 80.9801 46.945 79.3113 46.9 77.3232H52.5542C52.6171 78.2498 52.8825 79.0234 53.3503 79.6442C53.8271 80.2559 54.4614 80.7192 55.253 81.0341C56.0537 81.34 56.9578 81.4929 57.9654 81.4929C58.955 81.4929 59.8141 81.349 60.5428 81.0611C61.2805 80.7732 61.8517 80.3729 62.2566 79.8601C62.6614 79.3473 62.8638 78.758 62.8638 78.0923C62.8638 77.4716 62.6794 76.9498 62.3105 76.527C61.9507 76.1042 61.4199 75.7443 60.7182 75.4474C60.0255 75.1506 59.1754 74.8807 58.1678 74.6378L55.1586 73.8821C52.8285 73.3153 50.9888 72.4292 49.6394 71.2237C48.29 70.0182 47.6197 68.3944 47.6287 66.3523C47.6197 64.679 48.065 63.2171 48.9647 61.9666C49.8733 60.7161 51.1193 59.7401 52.7026 59.0384C54.2859 58.3366 56.0852 57.9858 58.1003 57.9858C60.1515 57.9858 61.9417 58.3366 63.4711 59.0384C65.0094 59.7401 66.2059 60.7161 67.0605 61.9666C67.9152 63.2171 68.356 64.6655 68.383 66.3118H62.7828ZM82.8388 86.3778C80.7607 86.3778 78.9119 86.0405 77.2926 85.3658C75.6823 84.6821 74.4183 83.7509 73.5007 82.5724C72.5831 81.3939 72.1243 80.058 72.1243 78.5646C72.1243 77.4131 72.3852 76.3561 72.907 75.3935C73.4377 74.4219 74.1574 73.6167 75.0661 72.978C75.9747 72.3303 76.9912 71.9164 78.1158 71.7365V71.5476C76.6404 71.2507 75.4439 70.5355 74.5263 69.402C73.6087 68.2595 73.1499 66.9325 73.1499 65.4212C73.1499 63.9908 73.5682 62.7178 74.4048 61.6023C75.2415 60.4777 76.3885 59.5961 77.8459 58.9574C79.3123 58.3097 80.9766 57.9858 82.8388 57.9858C84.701 57.9858 86.3608 58.3097 87.8182 58.9574C89.2846 59.6051 90.4361 60.4912 91.2727 61.6158C92.1094 62.7313 92.5322 63.9998 92.5412 65.4212C92.5322 66.9415 92.0644 68.2685 91.1378 69.402C90.2112 70.5355 89.0237 71.2507 87.5753 71.5476V71.7365C88.6818 71.9164 89.6849 72.3303 90.5845 72.978C91.4931 73.6167 92.2128 74.4219 92.7436 75.3935C93.2834 76.3561 93.5578 77.4131 93.5668 78.5646C93.5578 80.058 93.0945 81.3939 92.1768 82.5724C91.2592 83.7509 89.9908 84.6821 88.3714 85.3658C86.7611 86.0405 84.9169 86.3778 82.8388 86.3778ZM82.8388 82.0866C83.7654 82.0866 84.575 81.9202 85.2678 81.5874C85.9605 81.2455 86.5002 80.7777 86.8871 80.1839C87.2829 79.5812 87.4808 78.8885 87.4808 78.1058C87.4808 77.3052 87.2784 76.599 86.8736 75.9872C86.4688 75.3665 85.92 74.8807 85.2273 74.5298C84.5346 74.17 83.7384 73.9901 82.8388 73.9901C81.9482 73.9901 81.152 74.17 80.4503 74.5298C79.7486 74.8807 79.1953 75.3665 78.7905 75.9872C78.3946 76.599 78.1967 77.3052 78.1967 78.1058C78.1967 78.8885 78.3902 79.5812 78.777 80.1839C79.1638 80.7777 79.7081 81.2455 80.4098 81.5874C81.1115 81.9202 81.9212 82.0866 82.8388 82.0866ZM82.8388 69.7393C83.6125 69.7393 84.3007 69.5819 84.9034 69.267C85.5062 68.9522 85.9785 68.5159 86.3203 67.9581C86.6622 67.4003 86.8331 66.7571 86.8331 66.0284C86.8331 65.3087 86.6622 64.679 86.3203 64.1392C85.9785 63.5904 85.5107 63.1631 84.9169 62.8572C84.3232 62.5424 83.6304 62.3849 82.8388 62.3849C82.0561 62.3849 81.3634 62.5424 80.7607 62.8572C80.1579 63.1631 79.6856 63.5904 79.3438 64.1392C79.0109 64.679 78.8445 65.3087 78.8445 66.0284C78.8445 66.7571 79.0154 67.4003 79.3572 67.9581C79.6991 68.5159 80.1714 68.9522 80.7741 69.267C81.3769 69.5819 82.0651 69.7393 82.8388 69.7393ZM97.8141 86V58.3636H103.657V70.549H104.021L113.967 58.3636H120.97L110.715 70.7379L121.092 86H114.102L106.531 74.6378L103.657 78.1463V86H97.8141Z" fill="#161616"/>
</svg>
