<svg width="168" height="168" viewBox="0 0 168 168" fill="none" xmlns="http://www.w3.org/2000/svg">
<circle cx="85" cy="85" r="82" fill="#161616" stroke="#161616" stroke-width="2"/>
<circle cx="83" cy="83" r="82" fill="#FFC046" stroke="#161616" stroke-width="2"/>
<path d="M55.9128 89.4545V54.9091H58.1259V89.4545H55.9128ZM61.7828 66.3118C61.6749 65.2232 61.2116 64.3776 60.3929 63.7749C59.5743 63.1721 58.4632 62.8707 57.0598 62.8707C56.1062 62.8707 55.3011 63.0057 54.6444 63.2756C53.9876 63.5365 53.4838 63.9008 53.133 64.3686C52.7911 64.8364 52.6202 65.3672 52.6202 65.9609C52.6022 66.4557 52.7057 66.8875 52.9306 67.2564C53.1645 67.6252 53.4838 67.9446 53.8887 68.2145C54.2935 68.4754 54.7613 68.7048 55.2921 68.9027C55.8229 69.0916 56.3896 69.2536 56.9924 69.3885L59.4753 69.9822C60.6808 70.2521 61.7873 70.612 62.7949 71.0618C63.8025 71.5116 64.6751 72.0649 65.4128 72.7216C66.1505 73.3783 66.7218 74.152 67.1266 75.0426C67.5404 75.9332 67.7518 76.9543 67.7608 78.1058C67.7518 79.7971 67.32 81.2635 66.4654 82.505C65.6197 83.7375 64.3962 84.6955 62.7949 85.3793C61.2026 86.054 59.2819 86.3913 57.0328 86.3913C54.8018 86.3913 52.8586 86.0495 51.2033 85.3658C49.557 84.6821 48.2705 83.67 47.3439 82.3295C46.4263 80.9801 45.945 79.3113 45.9 77.3232H51.5542C51.6171 78.2498 51.8825 79.0234 52.3503 79.6442C52.8271 80.2559 53.4614 80.7192 54.253 81.0341C55.0537 81.34 55.9578 81.4929 56.9654 81.4929C57.955 81.4929 58.8141 81.349 59.5428 81.0611C60.2805 80.7732 60.8517 80.3729 61.2566 79.8601C61.6614 79.3473 61.8638 78.758 61.8638 78.0923C61.8638 77.4716 61.6794 76.9498 61.3105 76.527C60.9507 76.1042 60.4199 75.7443 59.7182 75.4474C59.0255 75.1506 58.1754 74.8807 57.1678 74.6378L54.1586 73.8821C51.8285 73.3153 49.9888 72.4292 48.6394 71.2237C47.29 70.0182 46.6197 68.3944 46.6287 66.3523C46.6197 64.679 47.065 63.2171 47.9647 61.9666C48.8733 60.7161 50.1193 59.7401 51.7026 59.0384C53.2859 58.3366 55.0852 57.9858 57.1003 57.9858C59.1515 57.9858 60.9417 58.3366 62.4711 59.0384C64.0094 59.7401 65.2059 60.7161 66.0605 61.9666C66.9152 63.2171 67.356 64.6655 67.383 66.3118H61.7828ZM81.8388 86.3778C79.7607 86.3778 77.9119 86.0405 76.2926 85.3658C74.6823 84.6821 73.4183 83.7509 72.5007 82.5724C71.5831 81.3939 71.1243 80.058 71.1243 78.5646C71.1243 77.4131 71.3852 76.3561 71.907 75.3935C72.4377 74.4219 73.1574 73.6167 74.0661 72.978C74.9747 72.3303 75.9912 71.9164 77.1158 71.7365V71.5476C75.6404 71.2507 74.4439 70.5355 73.5263 69.402C72.6087 68.2595 72.1499 66.9325 72.1499 65.4212C72.1499 63.9908 72.5682 62.7178 73.4048 61.6023C74.2415 60.4777 75.3885 59.5961 76.8459 58.9574C78.3123 58.3097 79.9766 57.9858 81.8388 57.9858C83.701 57.9858 85.3608 58.3097 86.8182 58.9574C88.2846 59.6051 89.4361 60.4912 90.2727 61.6158C91.1094 62.7313 91.5322 63.9998 91.5412 65.4212C91.5322 66.9415 91.0644 68.2685 90.1378 69.402C89.2112 70.5355 88.0237 71.2507 86.5753 71.5476V71.7365C87.6818 71.9164 88.6849 72.3303 89.5845 72.978C90.4931 73.6167 91.2128 74.4219 91.7436 75.3935C92.2834 76.3561 92.5578 77.4131 92.5668 78.5646C92.5578 80.058 92.0945 81.3939 91.1768 82.5724C90.2592 83.7509 88.9908 84.6821 87.3714 85.3658C85.7611 86.0405 83.9169 86.3778 81.8388 86.3778ZM81.8388 82.0866C82.7654 82.0866 83.575 81.9202 84.2678 81.5874C84.9605 81.2455 85.5002 80.7777 85.8871 80.1839C86.2829 79.5812 86.4808 78.8885 86.4808 78.1058C86.4808 77.3052 86.2784 76.599 85.8736 75.9872C85.4688 75.3665 84.92 74.8807 84.2273 74.5298C83.5346 74.17 82.7384 73.9901 81.8388 73.9901C80.9482 73.9901 80.152 74.17 79.4503 74.5298C78.7486 74.8807 78.1953 75.3665 77.7905 75.9872C77.3946 76.599 77.1967 77.3052 77.1967 78.1058C77.1967 78.8885 77.3902 79.5812 77.777 80.1839C78.1638 80.7777 78.7081 81.2455 79.4098 81.5874C80.1115 81.9202 80.9212 82.0866 81.8388 82.0866ZM81.8388 69.7393C82.6125 69.7393 83.3007 69.5819 83.9034 69.267C84.5062 68.9522 84.9785 68.5159 85.3203 67.9581C85.6622 67.4003 85.8331 66.7571 85.8331 66.0284C85.8331 65.3087 85.6622 64.679 85.3203 64.1392C84.9785 63.5904 84.5107 63.1631 83.9169 62.8572C83.3232 62.5424 82.6304 62.3849 81.8388 62.3849C81.0561 62.3849 80.3634 62.5424 79.7607 62.8572C79.1579 63.1631 78.6856 63.5904 78.3438 64.1392C78.0109 64.679 77.8445 65.3087 77.8445 66.0284C77.8445 66.7571 78.0154 67.4003 78.3572 67.9581C78.6991 68.5159 79.1714 68.9522 79.7741 69.267C80.3769 69.5819 81.0651 69.7393 81.8388 69.7393ZM96.8141 86V58.3636H102.657V70.549H103.021L112.967 58.3636H119.97L109.715 70.7379L120.092 86H113.102L105.531 74.6378L102.657 78.1463V86H96.8141Z" fill="#161616"/>
<path d="M42.8033 101.364H44.9112V108.966C44.9112 109.799 44.7143 110.532 44.3203 111.165C43.9302 111.797 43.3809 112.292 42.6726 112.648C41.9643 113 41.1366 113.176 40.1896 113.176C39.2389 113.176 38.4093 113 37.701 112.648C36.9927 112.292 36.4434 111.797 36.0533 111.165C35.6631 110.532 35.468 109.799 35.468 108.966V101.364H37.576V108.79C37.576 109.275 37.6821 109.706 37.8942 110.085C38.1101 110.464 38.4131 110.761 38.8033 110.977C39.1934 111.189 39.6555 111.295 40.1896 111.295C40.7237 111.295 41.1858 111.189 41.576 110.977C41.9699 110.761 42.273 110.464 42.4851 110.085C42.6972 109.706 42.8033 109.275 42.8033 108.79V101.364ZM48.9638 101.364L51.5263 105.625H51.6172L54.1911 101.364H56.5945L53.0092 107.182L56.6513 113H54.2081L51.6172 108.767H51.5263L48.9354 113H46.5036L50.1797 107.182L46.549 101.364H48.9638ZM66.1612 113H62.218V101.364H66.2408C67.3961 101.364 68.3885 101.597 69.218 102.062C70.0514 102.525 70.6915 103.189 71.1385 104.057C71.5855 104.924 71.8089 105.962 71.8089 107.17C71.8089 108.383 71.5836 109.424 71.1328 110.295C70.6858 111.167 70.04 111.835 69.1953 112.301C68.3544 112.767 67.343 113 66.1612 113ZM64.326 111.176H66.0589C66.8696 111.176 67.5457 111.028 68.0874 110.733C68.629 110.434 69.0362 109.989 69.3089 109.398C69.5817 108.803 69.718 108.061 69.718 107.17C69.718 106.28 69.5817 105.542 69.3089 104.955C69.0362 104.364 68.6328 103.922 68.0987 103.631C67.5684 103.335 66.9093 103.188 66.1214 103.188H64.326V111.176ZM77.5845 113.17C76.7095 113.17 75.9538 112.989 75.3175 112.625C74.6849 112.258 74.1982 111.739 73.8572 111.068C73.5163 110.394 73.3459 109.6 73.3459 108.688C73.3459 107.79 73.5163 107.002 73.8572 106.324C74.2019 105.642 74.683 105.112 75.3004 104.733C75.9179 104.35 76.6432 104.159 77.4766 104.159C78.0144 104.159 78.522 104.246 78.9993 104.42C79.4804 104.591 79.9046 104.856 80.272 105.216C80.6432 105.576 80.9349 106.034 81.147 106.591C81.3591 107.144 81.4652 107.803 81.4652 108.568V109.199H74.3118V107.812H79.4936C79.4898 107.419 79.4046 107.068 79.2379 106.761C79.0713 106.451 78.8383 106.206 78.5391 106.028C78.2436 105.85 77.8989 105.761 77.505 105.761C77.0845 105.761 76.7152 105.864 76.397 106.068C76.0788 106.269 75.8307 106.534 75.6527 106.864C75.4785 107.189 75.3894 107.547 75.3857 107.938V109.148C75.3857 109.655 75.4785 110.091 75.6641 110.455C75.8497 110.814 76.1091 111.091 76.4425 111.284C76.7758 111.473 77.166 111.568 77.6129 111.568C77.9122 111.568 78.183 111.527 78.4254 111.443C78.6679 111.356 78.8781 111.229 79.0561 111.062C79.2341 110.896 79.3686 110.689 79.4595 110.443L81.38 110.659C81.2588 111.167 81.0277 111.61 80.6868 111.989C80.3497 112.364 79.9179 112.655 79.3913 112.864C78.8648 113.068 78.2625 113.17 77.5845 113.17ZM90.103 106.58L88.228 106.784C88.175 106.595 88.0821 106.417 87.9496 106.25C87.8208 106.083 87.6465 105.949 87.4268 105.847C87.2071 105.744 86.9382 105.693 86.62 105.693C86.192 105.693 85.8321 105.786 85.5405 105.972C85.2526 106.157 85.1106 106.398 85.1143 106.693C85.1106 106.947 85.2034 107.153 85.3928 107.312C85.5859 107.472 85.9041 107.602 86.3473 107.705L87.8359 108.023C88.6617 108.201 89.2753 108.483 89.6768 108.869C90.0821 109.256 90.2867 109.761 90.2905 110.386C90.2867 110.936 90.1257 111.42 89.8075 111.841C89.4931 112.258 89.0556 112.583 88.495 112.818C87.9344 113.053 87.2905 113.17 86.5632 113.17C85.495 113.17 84.6352 112.947 83.9837 112.5C83.3321 112.049 82.9439 111.422 82.8189 110.619L84.8246 110.426C84.9155 110.82 85.1087 111.117 85.4041 111.318C85.6996 111.519 86.084 111.619 86.5575 111.619C87.0462 111.619 87.4382 111.519 87.7337 111.318C88.0329 111.117 88.1825 110.869 88.1825 110.574C88.1825 110.324 88.0859 110.117 87.8928 109.955C87.7034 109.792 87.4079 109.667 87.0064 109.58L85.5178 109.267C84.6806 109.093 84.0613 108.799 83.6598 108.386C83.2583 107.97 83.0594 107.443 83.0632 106.807C83.0594 106.269 83.2053 105.803 83.5007 105.409C83.8 105.011 84.2147 104.705 84.745 104.489C85.2791 104.269 85.8946 104.159 86.5916 104.159C87.6143 104.159 88.4193 104.377 89.0064 104.812C89.5973 105.248 89.9628 105.837 90.103 106.58ZM91.9865 113V104.273H94.0433V113H91.9865ZM93.0206 103.034C92.6948 103.034 92.4145 102.926 92.1797 102.71C91.9448 102.491 91.8274 102.227 91.8274 101.92C91.8274 101.61 91.9448 101.347 92.1797 101.131C92.4145 100.911 92.6948 100.801 93.0206 100.801C93.3501 100.801 93.6304 100.911 93.8615 101.131C94.0964 101.347 94.2138 101.61 94.2138 101.92C94.2138 102.227 94.0964 102.491 93.8615 102.71C93.6304 102.926 93.3501 103.034 93.0206 103.034ZM99.9538 116.455C99.2152 116.455 98.5807 116.354 98.0504 116.153C97.5201 115.956 97.094 115.691 96.772 115.358C96.45 115.025 96.2266 114.655 96.1016 114.25L97.9538 113.801C98.0372 113.972 98.1584 114.14 98.3175 114.307C98.4766 114.477 98.6906 114.617 98.9595 114.727C99.2322 114.841 99.575 114.898 99.9879 114.898C100.571 114.898 101.054 114.756 101.437 114.472C101.819 114.191 102.011 113.729 102.011 113.085V111.432H101.908C101.802 111.644 101.647 111.862 101.442 112.085C101.242 112.309 100.975 112.496 100.641 112.648C100.312 112.799 99.897 112.875 99.397 112.875C98.7266 112.875 98.1186 112.718 97.5732 112.403C97.0315 112.085 96.5997 111.612 96.2777 110.983C95.9595 110.35 95.8004 109.559 95.8004 108.608C95.8004 107.65 95.9595 106.841 96.2777 106.182C96.5997 105.519 97.0334 105.017 97.5788 104.676C98.1243 104.331 98.7322 104.159 99.4027 104.159C99.9141 104.159 100.335 104.246 100.664 104.42C100.997 104.591 101.263 104.797 101.46 105.04C101.656 105.278 101.806 105.504 101.908 105.716H102.022V104.273H104.05V113.142C104.05 113.888 103.872 114.506 103.516 114.994C103.16 115.483 102.674 115.848 102.056 116.091C101.439 116.333 100.738 116.455 99.9538 116.455ZM99.9709 111.261C100.406 111.261 100.778 111.155 101.085 110.943C101.391 110.731 101.624 110.426 101.783 110.028C101.942 109.631 102.022 109.153 102.022 108.597C102.022 108.047 101.942 107.566 101.783 107.153C101.628 106.741 101.397 106.42 101.09 106.193C100.787 105.962 100.414 105.847 99.9709 105.847C99.5125 105.847 99.13 105.966 98.8232 106.205C98.5163 106.443 98.2853 106.771 98.13 107.188C97.9747 107.6 97.897 108.07 97.897 108.597C97.897 109.131 97.9747 109.598 98.13 110C98.2891 110.398 98.522 110.708 98.8288 110.932C99.1394 111.152 99.5201 111.261 99.9709 111.261ZM108.215 107.886V113H106.158V104.273H108.124V105.756H108.227C108.427 105.267 108.747 104.879 109.187 104.591C109.63 104.303 110.177 104.159 110.829 104.159C111.431 104.159 111.956 104.288 112.403 104.545C112.853 104.803 113.202 105.176 113.448 105.665C113.698 106.153 113.821 106.746 113.817 107.443V113H111.761V107.761C111.761 107.178 111.609 106.722 111.306 106.392C111.007 106.062 110.592 105.898 110.062 105.898C109.702 105.898 109.382 105.977 109.102 106.136C108.825 106.292 108.607 106.517 108.448 106.812C108.293 107.108 108.215 107.466 108.215 107.886ZM119.772 113.17C118.897 113.17 118.141 112.989 117.505 112.625C116.872 112.258 116.386 111.739 116.045 111.068C115.704 110.394 115.533 109.6 115.533 108.688C115.533 107.79 115.704 107.002 116.045 106.324C116.389 105.642 116.871 105.112 117.488 104.733C118.105 104.35 118.831 104.159 119.664 104.159C120.202 104.159 120.71 104.246 121.187 104.42C121.668 104.591 122.092 104.856 122.46 105.216C122.831 105.576 123.122 106.034 123.335 106.591C123.547 107.144 123.653 107.803 123.653 108.568V109.199H116.499V107.812H121.681C121.677 107.419 121.592 107.068 121.425 106.761C121.259 106.451 121.026 106.206 120.727 106.028C120.431 105.85 120.086 105.761 119.692 105.761C119.272 105.761 118.903 105.864 118.585 106.068C118.266 106.269 118.018 106.534 117.84 106.864C117.666 107.189 117.577 107.547 117.573 107.938V109.148C117.573 109.655 117.666 110.091 117.852 110.455C118.037 110.814 118.297 111.091 118.63 111.284C118.963 111.473 119.353 111.568 119.8 111.568C120.1 111.568 120.371 111.527 120.613 111.443C120.855 111.356 121.066 111.229 121.244 111.062C121.422 110.896 121.556 110.689 121.647 110.443L123.567 110.659C123.446 111.167 123.215 111.61 122.874 111.989C122.537 112.364 122.105 112.655 121.579 112.864C121.052 113.068 120.45 113.17 119.772 113.17ZM125.393 113V104.273H127.387V105.727H127.478C127.637 105.223 127.91 104.835 128.296 104.562C128.686 104.286 129.131 104.148 129.631 104.148C129.745 104.148 129.872 104.153 130.012 104.165C130.156 104.172 130.275 104.186 130.37 104.205V106.097C130.283 106.066 130.145 106.04 129.955 106.017C129.77 105.991 129.59 105.977 129.415 105.977C129.04 105.977 128.703 106.059 128.404 106.222C128.109 106.381 127.876 106.602 127.705 106.886C127.535 107.17 127.45 107.498 127.45 107.869V113H125.393Z" fill="#161616"/>
</svg>
