<svg width="1747" height="236" viewBox="0 0 1747 236" fill="none" xmlns="http://www.w3.org/2000/svg">
<path d="M419.56 197.74C390.787 197.567 369.207 190.46 354.82 176.42C340.607 162.38 333.5 139.587 333.5 108.04C333.5 79.44 340.433 56.9933 354.3 40.7C368.167 24.2333 387.753 16 413.06 16C428.66 16 442.267 18.34 453.88 23.02C465.493 27.7 474.42 34.3733 480.66 43.04C486.9 51.7067 490.02 61.9333 490.02 73.72C490.02 83.08 487.94 91.4 483.78 98.68C479.793 105.96 473.813 112.46 465.84 118.18C472.253 119.22 477.8 122.687 482.48 128.58C487.333 134.473 489.76 141.32 489.76 149.12C489.76 157.44 487.507 165.327 483 172.78C478.667 180.06 471.213 186.04 460.64 190.72C450.24 195.4 436.547 197.74 419.56 197.74ZM401.62 100.76C404.74 102.32 408.64 103.1 413.32 103.1C418.867 103.1 423.633 101.8 427.62 99.2C431.78 96.4267 433.86 92.3533 433.86 86.98C433.86 81.78 431.78 77.88 427.62 75.28C423.633 72.5067 418.78 71.12 413.06 71.12C408.553 71.12 404.74 71.9 401.62 73.46C399.193 74.5 397.373 76.32 396.16 78.92C394.947 81.52 394.34 84.2933 394.34 87.24C394.34 90.1867 394.947 92.96 396.16 95.56C397.373 97.9867 399.193 99.72 401.62 100.76ZM401.62 161.6C404.913 162.987 408.813 163.68 413.32 163.68C418.867 163.68 423.633 162.553 427.62 160.3C431.78 157.873 433.86 154.32 433.86 149.64C433.86 145.133 431.78 141.667 427.62 139.24C423.46 136.813 418.607 135.6 413.06 135.6C408.727 135.6 404.913 136.293 401.62 137.68C399.193 138.72 397.373 140.367 396.16 142.62C394.947 144.7 394.34 147.04 394.34 149.64C394.34 152.24 394.947 154.667 396.16 156.92C397.373 159 399.193 160.56 401.62 161.6ZM558.158 198C545.505 198 534.412 194.88 524.878 188.64C515.345 182.227 507.978 173.387 502.778 162.12C497.752 150.68 495.238 137.507 495.238 122.6C495.238 108.04 497.578 96.6 502.258 88.28C506.938 79.96 513.438 75.8 521.758 75.8C536.492 75.8 543.858 83.34 543.858 98.42C543.858 101.54 543.772 104.313 543.598 106.74C543.425 108.993 543.252 110.987 543.078 112.72C542.385 119.653 542.038 125.2 542.038 129.36C542.038 136.987 543.598 142.793 546.718 146.78C549.838 150.767 553.652 152.76 558.158 152.76C562.838 152.76 566.652 150.853 569.598 147.04C572.718 143.053 574.278 137.16 574.278 129.36C574.278 123.813 574.018 118.7 573.498 114.02C573.325 112.46 573.152 110.207 572.978 107.26C572.805 104.14 572.718 101.28 572.718 98.68C572.718 83.4267 580.085 75.8 594.818 75.8C603.138 75.8 609.552 79.96 614.058 88.28C618.738 96.4267 621.078 107.867 621.078 122.6C621.078 145.653 615.705 164.027 604.958 177.72C594.212 191.24 578.612 198 558.158 198ZM704.429 198C672.882 198 652.515 188.38 643.329 169.14C634.315 149.727 629.809 130.053 629.809 110.12C629.809 95.3867 631.109 80.8267 633.709 66.44C636.482 52.0533 640.902 40.0067 646.969 30.3C653.035 20.5933 660.922 15.74 670.629 15.74C676.695 15.74 681.895 17.6467 686.229 21.46C690.562 25.2733 692.729 30.82 692.729 38.1C692.729 41.74 692.382 45.38 691.689 49.02C690.995 52.66 689.955 57.1667 688.569 62.54C688.222 63.58 687.529 66.18 686.489 70.34C685.622 74.5 685.015 78.4 684.669 82.04C692.295 77.88 700.962 75.8 710.669 75.8C720.375 75.8 729.389 77.9667 737.709 82.3C746.202 86.6333 753.049 93.3067 758.249 102.32C763.622 111.16 766.309 121.993 766.309 134.82C766.309 145.74 763.795 156.053 758.769 165.76C753.742 175.293 746.462 183.093 736.929 189.16C727.569 195.053 716.735 198 704.429 198ZM702.869 156.92C707.549 156.92 711.622 155.187 715.089 151.72C718.729 148.08 720.549 143.833 720.549 138.98C720.549 134.127 718.729 129.88 715.089 126.24C711.622 122.6 707.549 120.78 702.869 120.78C698.189 120.78 694.115 122.6 690.649 126.24C687.182 129.88 685.449 134.127 685.449 138.98C685.449 143.833 687.182 148.08 690.649 151.72C694.115 155.187 698.189 156.92 702.869 156.92ZM848.901 198C817.355 198 796.988 188.38 787.801 169.14C778.788 149.727 774.281 130.053 774.281 110.12C774.281 95.3867 775.581 80.8267 778.181 66.44C780.955 52.0533 785.375 40.0067 791.441 30.3C797.508 20.5933 805.395 15.74 815.101 15.74C821.168 15.74 826.368 17.6467 830.701 21.46C835.035 25.2733 837.201 30.82 837.201 38.1C837.201 41.74 836.855 45.38 836.161 49.02C835.468 52.66 834.428 57.1667 833.041 62.54C832.695 63.58 832.001 66.18 830.961 70.34C830.095 74.5 829.488 78.4 829.141 82.04C836.768 77.88 845.435 75.8 855.141 75.8C864.848 75.8 873.861 77.9667 882.181 82.3C890.675 86.6333 897.521 93.3067 902.721 102.32C908.095 111.16 910.781 121.993 910.781 134.82C910.781 145.74 908.268 156.053 903.241 165.76C898.215 175.293 890.935 183.093 881.401 189.16C872.041 195.053 861.208 198 848.901 198ZM847.341 156.92C852.021 156.92 856.095 155.187 859.561 151.72C863.201 148.08 865.021 143.833 865.021 138.98C865.021 134.127 863.201 129.88 859.561 126.24C856.095 122.6 852.021 120.78 847.341 120.78C842.661 120.78 838.588 122.6 835.121 126.24C831.655 129.88 829.921 134.127 829.921 138.98C829.921 143.833 831.655 148.08 835.121 151.72C838.588 155.187 842.661 156.92 847.341 156.92ZM954.252 197.48C945.585 197.48 939.085 194.273 934.752 187.86C930.419 181.447 927.472 172 925.912 159.52C924.525 146.867 923.832 129.273 923.832 106.74C923.832 85.0733 924.352 68.1733 925.392 56.04C926.605 43.9067 929.379 34.2 933.712 26.92C938.219 19.64 945.152 16 954.512 16C963.872 16 970.719 19.64 975.052 26.92C979.559 34.2 982.332 43.9067 983.372 56.04C984.585 68.1733 985.192 85.0733 985.192 106.74C985.192 128.06 984.239 145.307 982.332 158.48C980.599 171.48 977.479 181.273 972.972 187.86C968.465 194.273 962.225 197.48 954.252 197.48ZM1058.41 198C1045.58 198 1034.23 195.487 1024.35 190.46C1014.47 185.433 1006.76 178.413 1001.21 169.4C995.835 160.213 993.148 149.9 993.148 138.46C993.148 127.193 995.835 116.793 1001.21 107.26C1006.76 97.7267 1014.38 90.1 1024.09 84.38C1033.8 78.66 1044.8 75.8 1057.11 75.8C1068.2 75.8 1078 78.0533 1086.49 82.56C1094.98 87.0667 1101.48 93.0467 1105.99 100.5C1110.5 107.78 1112.75 115.407 1112.75 123.38C1112.75 136.38 1107.81 145.913 1097.93 151.98C1088.22 157.873 1076.61 160.82 1063.09 160.82C1054.08 160.82 1046.45 159.693 1040.21 157.44C1045.41 165.933 1053.99 170.18 1065.95 170.18C1070.8 170.18 1076 169.573 1081.55 168.36C1083.63 167.84 1085.62 167.58 1087.53 167.58C1091.34 167.58 1094.38 168.533 1096.63 170.44C1099.06 172.347 1100.27 174.947 1100.27 178.24C1100.27 183.613 1096.98 188.293 1090.39 192.28C1083.8 196.093 1073.14 198 1058.41 198ZM1040.99 125.72C1042.55 128.147 1044.63 129.967 1047.23 131.18C1050 132.22 1053.04 132.74 1056.33 132.74C1060.14 132.74 1063.44 131.873 1066.21 130.14C1069.16 128.407 1070.63 126.153 1070.63 123.38C1070.63 120.26 1069.33 117.573 1066.73 115.32C1064.3 113.067 1060.75 111.94 1056.07 111.94C1051.39 111.94 1047.66 113.413 1044.89 116.36C1042.29 119.133 1040.99 122.253 1040.99 125.72ZM1188.99 198C1175.12 198 1162.99 194.187 1152.59 186.56C1142.36 178.933 1134.48 168.1 1128.93 154.06C1123.38 140.02 1120.61 123.467 1120.61 104.4C1120.61 93.3067 1122.43 81.4333 1126.07 68.78C1129.88 56.1267 1135.26 45.4667 1142.19 36.8C1149.3 27.96 1157.53 23.54 1166.89 23.54C1174.52 23.54 1180.84 26.3133 1185.87 31.86C1190.9 37.4067 1193.41 44.2533 1193.41 52.4C1193.41 54.8267 1192.8 58.12 1191.59 62.28C1190.55 66.2667 1189.34 70.4267 1187.95 74.76C1185.35 82.2133 1183.36 88.8 1181.97 94.52C1180.58 100.067 1179.89 105.44 1179.89 110.64C1179.89 118.267 1181.02 123.813 1183.27 127.28C1185.52 130.747 1188.3 132.48 1191.59 132.48C1195.92 132.48 1198.96 130.313 1200.69 125.98C1202.6 121.473 1203.55 113.24 1203.55 101.28L1203.29 83.34C1203.29 69.4733 1205.11 58.4667 1208.75 50.32C1212.39 42 1219.67 37.84 1230.59 37.84C1238.74 37.84 1244.89 40.0933 1249.05 44.6C1253.21 49.1067 1255.9 54.8267 1257.11 61.76C1258.32 68.52 1258.93 76.7533 1258.93 86.46V99.72C1258.93 112.373 1259.97 121.387 1262.05 126.76C1264.3 131.96 1267.86 134.56 1272.71 134.56C1276 134.56 1278.52 132.913 1280.25 129.62C1282.16 126.153 1283.11 121.04 1283.11 114.28C1283.11 109.253 1282.5 104.227 1281.29 99.2C1280.08 94.1733 1278.17 87.76 1275.57 79.96C1273.32 72.5067 1271.67 66.96 1270.63 63.32C1269.76 59.5067 1269.33 55.8667 1269.33 52.4C1269.33 44.2533 1271.93 37.4933 1277.13 32.12C1282.5 26.7467 1288.74 24.06 1295.85 24.06C1306.08 24.06 1314.66 28.3933 1321.59 37.06C1328.7 45.5533 1333.98 56.04 1337.45 68.52C1340.92 81 1342.65 92.96 1342.65 104.4C1342.65 123.467 1339.88 140.02 1334.33 154.06C1328.78 168.1 1320.81 178.933 1310.41 186.56C1300.18 194.013 1288.14 197.74 1274.27 197.74C1266.64 197.74 1259.19 196.007 1251.91 192.54C1244.63 189.073 1237.87 183.873 1231.63 176.94C1225.39 183.873 1218.54 189.16 1211.09 192.8C1203.81 196.267 1196.44 198 1188.99 198ZM1383.55 198C1372.45 198 1365 191.5 1361.19 178.5C1357.55 165.5 1355.73 147.56 1355.73 124.68C1355.73 114.28 1356.16 105.613 1357.03 98.68C1358.07 91.5733 1360.41 85.5933 1364.05 80.74C1367.86 75.7133 1373.67 73.2 1381.47 73.2C1386.32 73.2 1390.57 74.3267 1394.21 76.58C1398.02 78.8333 1400.45 82.04 1401.49 86.2C1405.3 82.7333 1410.24 80.1333 1416.31 78.4C1422.37 76.6667 1428.87 75.8 1435.81 75.8C1441.35 75.8 1446.99 77.1867 1452.71 79.96C1458.6 82.7333 1463.45 86.5467 1467.27 91.4C1471.25 96.08 1473.25 101.193 1473.25 106.74C1473.25 112.287 1471.25 117.227 1467.27 121.56C1463.45 125.72 1458.34 127.8 1451.93 127.8C1449.85 127.8 1447.85 127.54 1445.95 127.02C1444.21 126.5 1442.65 125.98 1441.27 125.46C1437.8 124.073 1435.03 123.38 1432.95 123.38C1426.19 123.38 1420.21 126.067 1415.01 131.44C1409.98 136.64 1407.47 143.4 1407.47 151.72C1407.47 160.907 1407.12 168.533 1406.43 174.6C1405.73 180.667 1403.65 186.127 1400.19 190.98C1396.72 195.66 1391.17 198 1383.55 198ZM1525.16 198C1511.64 198 1500.55 194.967 1491.88 188.9C1483.22 182.66 1478.88 173.733 1478.88 162.12C1478.88 152.067 1483.3 144.093 1492.14 138.2C1500.98 132.307 1511.99 129.36 1525.16 129.36C1530.02 129.36 1534.52 129.793 1538.68 130.66C1543.02 131.353 1545.96 132.22 1547.52 133.26C1547.52 128.927 1545.7 125.373 1542.06 122.6C1538.42 119.653 1532.88 118.18 1525.42 118.18C1522.13 118.18 1519.44 118.44 1517.36 118.96C1515.28 119.48 1513.03 120.26 1510.6 121.3C1508.18 122.34 1505.92 123.12 1503.84 123.64C1501.94 124.16 1499.34 124.42 1496.04 124.42C1490.5 124.42 1486.16 123.033 1483.04 120.26C1479.92 117.313 1478.36 112.893 1478.36 107C1478.36 100.24 1480.79 94.52 1485.64 89.84C1490.67 85.16 1496.91 81.6933 1504.36 79.44C1511.82 77.0133 1519.27 75.8 1526.72 75.8C1541.46 75.8 1553.76 78.5733 1563.64 84.12C1573.7 89.4933 1581.06 96.6867 1585.74 105.7C1590.6 114.713 1593.02 124.68 1593.02 135.6C1593.02 141.493 1592.5 146.953 1591.46 151.98C1590.6 157.007 1589.38 160.907 1587.82 163.68C1590.25 165.76 1592.07 168.187 1593.28 170.96C1594.67 173.733 1595.36 176.593 1595.36 179.54C1595.36 184.567 1593.63 188.9 1590.16 192.54C1586.87 196.18 1582.45 198 1576.9 198C1572.74 198 1569.36 197.393 1566.76 196.18C1564.16 194.967 1561.39 193.06 1558.44 190.46C1554.11 193.06 1549.34 194.967 1544.14 196.18C1539.12 197.393 1532.79 198 1525.16 198ZM1530.36 171.74C1534 171.74 1536.86 170.96 1538.94 169.4C1541.2 167.84 1542.32 165.933 1542.32 163.68C1542.32 161.427 1541.2 159.52 1538.94 157.96C1536.86 156.4 1534 155.62 1530.36 155.62C1526.72 155.62 1523.78 156.4 1521.52 157.96C1519.44 159.52 1518.4 161.427 1518.4 163.68C1518.4 165.933 1519.44 167.84 1521.52 169.4C1523.78 170.96 1526.72 171.74 1530.36 171.74ZM1629.81 235.18C1621.31 235.18 1615.16 230.847 1611.35 222.18C1607.53 213.687 1605.19 203.98 1604.33 193.06C1603.63 182.14 1603.29 167.753 1603.29 149.9C1603.29 136.207 1603.81 124.16 1604.85 113.76C1606.06 103.36 1608.75 94.3467 1612.91 86.72C1617.07 79.0933 1623.39 75.28 1631.89 75.28C1640.73 75.28 1647.14 78.7467 1651.13 85.68C1655.11 82.7333 1660.05 80.3933 1665.95 78.66C1672.01 76.7533 1678.34 75.8 1684.93 75.8C1696.02 75.8 1706.25 78.5733 1715.61 84.12C1724.97 89.6667 1732.42 97.12 1737.97 106.48C1743.51 115.84 1746.29 126.067 1746.29 137.16C1746.29 148.253 1743.51 158.567 1737.97 168.1C1732.42 177.46 1724.97 184.913 1715.61 190.46C1706.25 196.007 1696.02 198.78 1684.93 198.78C1678.17 198.78 1671.84 197.913 1665.95 196.18C1660.05 194.273 1655.03 191.76 1650.87 188.64C1650.87 199.733 1650.52 208.313 1649.83 214.38C1649.13 220.447 1647.23 225.387 1644.11 229.2C1641.16 233.187 1636.39 235.18 1629.81 235.18ZM1683.63 155.62C1688.13 155.62 1692.03 153.973 1695.33 150.68C1698.79 147.213 1700.53 143.227 1700.53 138.72C1700.53 134.213 1698.79 130.313 1695.33 127.02C1692.03 123.553 1688.13 121.82 1683.63 121.82C1679.12 121.82 1675.13 123.553 1671.67 127.02C1668.37 130.313 1666.73 134.213 1666.73 138.72C1666.73 143.227 1668.37 147.213 1671.67 150.68C1675.13 153.973 1679.12 155.62 1683.63 155.62Z" fill="white"/>
<circle cx="50" cy="50" r="50" fill="#71F69A"/>
<circle cx="150" cy="50" r="50" fill="#71F69A"/>
<circle cx="50" cy="150" r="50" fill="white"/>
<circle cx="150" cy="150" r="50" fill="#71F69A"/>
</svg>
