<svg width="91" height="92" viewBox="0 0 91 92" fill="none" xmlns="http://www.w3.org/2000/svg">
<g filter="url(#filter0_d_15_78)">
<path d="M34.4703 6.86523H56.5309V83.7608H34.4703V6.86523ZM6.89453 83.7608V34.3279H28.9551V83.7608H6.89453ZM17.9248 6.86523C14.9994 6.86523 12.1938 8.02259 10.1252 10.0827C8.05665 12.1428 6.89453 14.9369 6.89453 17.8503C6.89453 20.7637 8.05665 23.5578 10.1252 25.6179C12.1938 27.678 14.9994 28.8354 17.9248 28.8354C20.8503 28.8354 23.6559 27.678 25.7244 25.6179C27.793 23.5578 28.9551 20.7637 28.9551 17.8503C28.9551 14.9369 27.793 12.1428 25.7244 10.0827C23.6559 8.02259 20.8503 6.86523 17.9248 6.86523V6.86523ZM62.046 6.86523H84.1067V28.8354H62.046V6.86523ZM84.1067 34.3279H62.046V56.2981H84.1067V34.3279Z" fill="url(#paint0_linear_15_78)"/>
</g>
<defs>
<filter id="filter0_d_15_78" x="5.89453" y="5.86523" width="81.2122" height="80.8955" filterUnits="userSpaceOnUse" color-interpolation-filters="sRGB">
<feFlood flood-opacity="0" result="BackgroundImageFix"/>
<feColorMatrix in="SourceAlpha" type="matrix" values="0 0 0 0 0 0 0 0 0 0 0 0 0 0 0 0 0 0 127 0" result="hardAlpha"/>
<feOffset dx="1" dy="1"/>
<feGaussianBlur stdDeviation="1"/>
<feComposite in2="hardAlpha" operator="out"/>
<feColorMatrix type="matrix" values="0 0 0 0 0 0 0 0 0 0 0 0 0 0 0 0 0 0 0.08 0"/>
<feBlend mode="normal" in2="BackgroundImageFix" result="effect1_dropShadow_15_78"/>
<feBlend mode="normal" in="SourceGraphic" in2="effect1_dropShadow_15_78" result="shape"/>
</filter>
<linearGradient id="paint0_linear_15_78" x1="45.5006" y1="6.86523" x2="45.5006" y2="83.7607" gradientUnits="userSpaceOnUse">
<stop stop-color="#FCD85B"/>
<stop offset="1" stop-color="#FBEBB3"/>
</linearGradient>
</defs>
</svg>
