<svg width="104" height="104" viewBox="0 0 104 104" fill="none" xmlns="http://www.w3.org/2000/svg">
<g filter="url(#filter0_d_15_253)">
<path d="M52 6.5C26.8734 6.5 6.5 26.8734 6.5 52C6.5 77.1266 26.8734 97.5 52 97.5C77.1266 97.5 97.5 77.1266 97.5 52C97.5 26.8734 77.1266 6.5 52 6.5ZM52 89.7812C31.1391 89.7812 14.2188 72.8609 14.2188 52C14.2188 31.1391 31.1391 14.2188 52 14.2188C72.8609 14.2188 89.7812 31.1391 89.7812 52C89.7812 72.8609 72.8609 89.7812 52 89.7812Z" fill="url(#paint0_linear_15_253)"/>
</g>
<path d="M56.8436 49.6437L54.2639 49.0445V35.4047C58.1233 35.9328 60.4999 37.0067 60.4999 40C60.4999 42 61.9999 42.0164 61.9999 42.0164H65.9999C66.4999 42 67.5 41.5 67.5 40C67.5 33.6424 61.2616 30.7328 54.3045 30.032V28C54.3045 27 54.3045 25.8984 52.9998 25.8984H50.9998C49.8256 25.8984 49.8256 27 49.8256 28V30.0625C42.635 30.7633 37.0084 34.7344 37.0084 42.1484C37.0084 49.0141 42.0662 52.325 47.378 53.5945L49.8865 54.2344V68.7273C45.3975 68.1281 42.9999 66.5 42.9999 63.5C42.9999 61.8312 41.5584 61.8312 41.5584 61.8312H36.8662C36.3889 61.8312 35.4998 62.5 35.4998 64C35.4998 70.2852 40.7459 73.4398 49.785 74.1V76.5C49.785 76.9469 49.785 78.1016 50.5975 78.1016H53.4819C54.2741 78.1016 54.2944 77 54.2944 76.5L54.2741 74.0594C62.2264 73.3586 67.9139 69.1031 67.9139 61.4656C67.9037 54.4172 63.4248 51.2687 56.8436 49.6437ZM49.8764 47.9984C49.3076 47.8359 48.8303 47.6836 48.353 47.4906C44.9201 46.2516 43.3256 44.2508 43.3256 41.6711C43.3256 37.9844 46.1186 35.882 49.8764 35.4047V47.9984ZM54.2639 68.7578V55.1789C54.5787 55.2703 54.8631 55.3414 55.1576 55.4023C59.9616 56.8648 61.5764 58.8961 61.5764 62.0141C61.5764 65.9852 58.5905 68.3719 54.2639 68.7578Z" fill="url(#paint1_linear_15_253)"/>
<defs>
<filter id="filter0_d_15_253" x="5.5" y="5.5" width="95" height="95" filterUnits="userSpaceOnUse" color-interpolation-filters="sRGB">
<feFlood flood-opacity="0" result="BackgroundImageFix"/>
<feColorMatrix in="SourceAlpha" type="matrix" values="0 0 0 0 0 0 0 0 0 0 0 0 0 0 0 0 0 0 127 0" result="hardAlpha"/>
<feOffset dx="1" dy="1"/>
<feGaussianBlur stdDeviation="1"/>
<feComposite in2="hardAlpha" operator="out"/>
<feColorMatrix type="matrix" values="0 0 0 0 0 0 0 0 0 0 0 0 0 0 0 0 0 0 0.08 0"/>
<feBlend mode="normal" in2="BackgroundImageFix" result="effect1_dropShadow_15_253"/>
<feBlend mode="normal" in="SourceGraphic" in2="effect1_dropShadow_15_253" result="shape"/>
</filter>
<linearGradient id="paint0_linear_15_253" x1="52" y1="6.5" x2="52" y2="97.5" gradientUnits="userSpaceOnUse">
<stop stop-color="#AAD29C"/>
<stop offset="1" stop-color="#C7DBC0"/>
</linearGradient>
<linearGradient id="paint1_linear_15_253" x1="51.9821" y1="25.8984" x2="51.9821" y2="78.1016" gradientUnits="userSpaceOnUse">
<stop stop-color="#9ECA8F"/>
<stop offset="1" stop-color="#B7D3AD"/>
</linearGradient>
</defs>
</svg>
